<svg xmlns="http://www.w3.org/2000/svg" xmlns:xlink="http://www.w3.org/1999/xlink" contentStyleType="text/css" height="952px" preserveAspectRatio="none" style="width:1623px;height:952px;background:#FFFFFF;" version="1.1" viewBox="0 0 1623 952" width="1623px" zoomAndPan="magnify"><defs/><g><!--cluster postacie--><g id="cluster_postacie"><rect fill="none" height="171" rx="2.5" ry="2.5" style="stroke:#181818;stroke-width:1.0;" width="850" x="37.52" y="7"/><text fill="#000000" font-family="sans-serif" font-size="14" font-weight="bold" lengthAdjust="spacing" textLength="66.7051" x="429.1675" y="21.9951">postacie</text></g><!--cluster slugi--><g id="cluster_slugi"><rect fill="none" height="104" rx="2.5" ry="2.5" style="stroke:#181818;stroke-width:1.0;" width="456" x="407.52" y="50"/><text fill="#000000" font-family="sans-serif" font-size="14" font-weight="bold" lengthAdjust="spacing" textLength="38.3154" x="616.3623" y="64.9951">s&#322;ugi</text></g><!--cluster jednostki--><g id="cluster_jednostki"><rect fill="none" height="103" rx="2.5" ry="2.5" style="stroke:#181818;stroke-width:1.0;" width="264" x="1353.52" y="50.5"/><text fill="#000000" font-family="sans-serif" font-size="14" font-weight="bold" lengthAdjust="spacing" textLength="73.0352" x="1449.0024" y="65.4951">jednostki</text></g><!--cluster dowodzcy--><g id="cluster_dowodzcy"><rect fill="none" height="120" rx="2.5" ry="2.5" style="stroke:#181818;stroke-width:1.0;" width="235" x="912.52" y="42"/><text fill="#000000" font-family="sans-serif" font-size="14" font-weight="bold" lengthAdjust="spacing" textLength="77.7861" x="991.1269" y="56.9951">dow&#243;dzcy</text></g><!--cluster narod--><g id="cluster_narod"><rect fill="none" height="234" rx="2.5" ry="2.5" style="stroke:#181818;stroke-width:1.0;" width="168" x="587.52" y="471"/><text fill="#000000" font-family="sans-serif" font-size="14" font-weight="bold" lengthAdjust="spacing" textLength="45.958" x="648.541" y="485.9951">nar&#243;d</text></g><!--cluster osada--><g id="cluster_osada"><rect fill="none" height="200" rx="2.5" ry="2.5" style="stroke:#181818;stroke-width:1.0;" width="238" x="869.52" y="746"/><text fill="#000000" font-family="sans-serif" font-size="14" font-weight="bold" lengthAdjust="spacing" textLength="46.8672" x="965.0864" y="760.9951">osada</text></g><!--entity towarzysze--><g id="elem_towarzysze"><rect fill="#F1F1F1" height="36.2969" rx="2.5" ry="2.5" style="stroke:#181818;stroke-width:0.5;" width="98.7295" x="290.02" y="93.5"/><text fill="#000000" font-family="sans-serif" font-size="14" lengthAdjust="spacing" textLength="78.7295" x="300.02" y="116.4951">towarzysze</text></g><!--entity powiernicy--><g id="elem_powiernicy"><rect fill="#F1F1F1" height="52.5938" rx="2.5" ry="2.5" style="stroke:#181818;stroke-width:0.5;" width="95.9814" x="158.52" y="85"/><text fill="#000000" font-family="sans-serif" font-size="14" lengthAdjust="spacing" textLength="75.9063" x="168.52" y="107.9951">powiernicy</text><text fill="#000000" font-family="sans-serif" font-size="14" lengthAdjust="spacing" textLength="75.9814" x="168.52" y="124.292">pier&#347;cienia</text></g><!--entity Gollum--><g id="elem_Gollum"><rect fill="#F1F1F1" height="36.2969" rx="2.5" ry="2.5" style="stroke:#181818;stroke-width:0.5;" width="69.7041" x="53.52" y="93.5"/><text fill="#000000" font-family="sans-serif" font-size="14" lengthAdjust="spacing" textLength="49.7041" x="63.52" y="116.4951">Gollum</text></g><!--entity Saruman--><g id="elem_Saruman"><rect fill="#F1F1F1" height="36.2969" rx="2.5" ry="2.5" style="stroke:#181818;stroke-width:0.5;" width="83.1846" x="424.02" y="93.5"/><text fill="#000000" font-family="sans-serif" font-size="14" lengthAdjust="spacing" textLength="63.1846" x="434.02" y="116.4951">Saruman</text></g><!--entity rzecznikSaurona--><g id="elem_rzecznikSaurona"><rect fill="#F1F1F1" height="36.2969" rx="2.5" ry="2.5" style="stroke:#181818;stroke-width:0.5;" width="144.168" x="542.52" y="93.5"/><text fill="#000000" font-family="sans-serif" font-size="14" lengthAdjust="spacing" textLength="124.168" x="552.52" y="116.4951">Rzecznik Saurona</text></g><!--entity czarnoksieznik--><g id="elem_czarnoksieznik"><rect fill="#F1F1F1" height="52.5938" rx="2.5" ry="2.5" style="stroke:#181818;stroke-width:0.5;" width="125.0205" x="722.02" y="85"/><text fill="#000000" font-family="sans-serif" font-size="14" lengthAdjust="spacing" textLength="105.0205" x="732.02" y="107.9951">Czarnoksi&#281;&#380;nik</text><text fill="#000000" font-family="sans-serif" font-size="14" lengthAdjust="spacing" textLength="75.9814" x="732.02" y="124.292">z Angmaru</text></g><!--entity regularne--><g id="elem_regularne"><rect fill="#F1F1F1" height="36.2969" rx="2.5" ry="2.5" style="stroke:#181818;stroke-width:0.5;" width="87.8398" x="1505.52" y="93.5"/><text fill="#000000" font-family="sans-serif" font-size="14" lengthAdjust="spacing" textLength="67.8398" x="1515.52" y="116.4951">regularne</text></g><!--entity elitarne--><g id="elem_elitarne"><rect fill="#F1F1F1" height="36.2969" rx="2.5" ry="2.5" style="stroke:#181818;stroke-width:0.5;" width="73.7031" x="1396.52" y="93.5"/><text fill="#000000" font-family="sans-serif" font-size="14" lengthAdjust="spacing" textLength="53.7031" x="1406.52" y="116.4951">elitarne</text></g><!--entity Nazgule--><g id="elem_Nazgule"><rect fill="#F1F1F1" height="36.2969" rx="2.5" ry="2.5" style="stroke:#181818;stroke-width:0.5;" width="76.6631" x="929.02" y="93.5"/><text fill="#000000" font-family="sans-serif" font-size="14" lengthAdjust="spacing" textLength="56.6631" x="939.02" y="116.4951">Nazg&#251;le</text></g><!--entity dowodzcyWolnychLudow--><g id="elem_dowodzcyWolnychLudow"><rect fill="#F1F1F1" height="68.8906" rx="2.5" ry="2.5" style="stroke:#181818;stroke-width:0.5;" width="89.6855" x="1041.52" y="77"/><text fill="#000000" font-family="sans-serif" font-size="14" lengthAdjust="spacing" textLength="69.6855" x="1051.52" y="99.9951">dow&#243;dzcy</text><text fill="#000000" font-family="sans-serif" font-size="14" lengthAdjust="spacing" textLength="60.0264" x="1051.52" y="116.292">Wolnych</text><text fill="#000000" font-family="sans-serif" font-size="14" lengthAdjust="spacing" textLength="45.5752" x="1051.52" y="132.5889">Lud&#243;w</text></g><!--entity region--><g id="elem_region"><rect fill="#F1F1F1" height="36.2969" rx="2.5" ry="2.5" style="stroke:#181818;stroke-width:0.5;" width="64.584" x="674.02" y="506"/><text fill="#000000" font-family="sans-serif" font-size="14" lengthAdjust="spacing" textLength="44.584" x="684.02" y="528.9951">region</text></g><g id="elem_GMN20"><path d="M603.52,603 L603.52,688.6641 A0,0 0 0 0 603.52,688.6641 L739.2412,688.6641 A0,0 0 0 0 739.2412,688.6641 L739.2412,613 L729.2412,603 L687.78,603 L701.51,542.19 L679.78,603 L603.52,603 A0,0 0 0 0 603.52,603 " fill="#FEFFDD" style="stroke:#181818;stroke-width:0.5;"/><path d="M729.2412,603 L729.2412,613 L739.2412,613 L729.2412,603 " fill="#FEFFDD" style="stroke:#181818;stroke-width:0.5;"/><text fill="#000000" font-family="sans-serif" font-size="13" font-weight="bold" lengthAdjust="spacing" textLength="43.126" x="609.52" y="620.0669">wolny</text><text fill="#000000" font-family="sans-serif" font-size="13" lengthAdjust="spacing" textLength="67.4629" x="656.7783" y="620.0669">dla gracza</text><text fill="#000000" font-family="sans-serif" font-size="13" lengthAdjust="spacing" textLength="112.7344" x="609.52" y="635.1997">gdy brak wrogich</text><text fill="#000000" font-family="sans-serif" font-size="13" lengthAdjust="spacing" textLength="76.0195" x="609.52" y="650.3325">armii i osad</text><text fill="#000000" font-family="sans-serif" font-size="13" lengthAdjust="spacing" textLength="100.439" x="609.52" y="665.4653">(poza oblegan&#261;</text><text fill="#000000" font-family="sans-serif" font-size="13" lengthAdjust="spacing" textLength="60.7979" x="609.52" y="680.5981">twierdz&#261;)</text></g><!--entity wioska--><g id="elem_wioska"><rect fill="#F1F1F1" height="36.2969" rx="2.5" ry="2.5" style="stroke:#181818;stroke-width:0.5;" width="67.8857" x="912.52" y="789"/><text fill="#000000" font-family="sans-serif" font-size="14" lengthAdjust="spacing" textLength="47.8857" x="922.52" y="811.9951">wioska</text></g><!--entity miasto--><g id="elem_miasto"><rect fill="#F1F1F1" height="36.2969" rx="2.5" ry="2.5" style="stroke:#181818;stroke-width:0.5;" width="67.4551" x="1016.02" y="789"/><text fill="#000000" font-family="sans-serif" font-size="14" lengthAdjust="spacing" textLength="47.4551" x="1026.02" y="811.9951">miasto</text></g><!--entity twierdza--><g id="elem_twierdza"><rect fill="#F1F1F1" height="36.2969" rx="2.5" ry="2.5" style="stroke:#181818;stroke-width:0.5;" width="80.0127" x="912.52" y="886"/><text fill="#000000" font-family="sans-serif" font-size="14" lengthAdjust="spacing" textLength="60.0127" x="922.52" y="908.9951">twierdza</text></g><!--entity druzyna--><g id="elem_druzyna"><rect fill="#F1F1F1" height="52.5938" rx="2.5" ry="2.5" style="stroke:#181818;stroke-width:0.5;" width="95.5371" x="130.52" y="328.5"/><text fill="#000000" font-family="sans-serif" font-size="14" lengthAdjust="spacing" textLength="58.4951" x="140.52" y="351.4951">Dru&#380;yna</text><text fill="#000000" font-family="sans-serif" font-size="14" lengthAdjust="spacing" textLength="75.5371" x="140.52" y="367.792">Pier&#347;cienia</text></g><!--entity armia--><g id="elem_armia"><rect fill="#F1F1F1" height="36.2969" rx="2.5" ry="2.5" style="stroke:#181818;stroke-width:0.5;" width="60.4414" x="1331.52" y="337"/><text fill="#000000" font-family="sans-serif" font-size="14" lengthAdjust="spacing" textLength="40.4414" x="1341.52" y="359.9951">armia</text></g><!--entity fortyfikacja--><g id="elem_fortyfikacja"><rect fill="#F1F1F1" height="36.2969" rx="2.5" ry="2.5" style="stroke:#181818;stroke-width:0.5;" width="98.6953" x="743.02" y="789"/><text fill="#000000" font-family="sans-serif" font-size="14" lengthAdjust="spacing" textLength="78.6953" x="753.02" y="811.9951">fortyfikacja</text></g><!--link czarnoksieznik to Nazgule--><g id="link_czarnoksieznik_Nazgule"><path d="M847.07,111.5 C874.36,111.5 895.65,111.5 922.94,111.5 " fill="none" id="czarnoksieznik-to-Nazgule" style="stroke:#181818;stroke-width:1.0;"/><polygon fill="#181818" points="928.94,111.5,919.94,107.5,923.94,111.5,919.94,115.5,928.94,111.5" style="stroke:#181818;stroke-width:1.0;"/></g><!--link towarzysze to region--><g id="link_towarzysze_region"><path d="M337.49,129.51 C330.31,191.18 307.47,400.66 325.52,424 C368.64,479.75 583.6187,509.2493 667.8687,518.8693 " fill="none" id="towarzysze-to-region" style="stroke:#181818;stroke-width:1.0;stroke-dasharray:7.0,7.0;"/><polygon fill="#181818" points="673.83,519.55,665.3419,514.5548,668.8623,518.9828,664.4343,522.5032,673.83,519.55" style="stroke:#181818;stroke-width:1.0;"/><text fill="#000000" font-family="sans-serif" font-size="13" lengthAdjust="spacing" textLength="16.2056" x="365.7485" y="299.0669">po</text><text fill="#8A2BE2" font-family="sans-serif" font-size="13" lengthAdjust="spacing" textLength="80.1011" x="386.0864" y="299.0669">opuszczeniu</text><text fill="#000000" font-family="sans-serif" font-size="13" lengthAdjust="spacing" textLength="132.6978" x="349.6191" y="314.1997">Dru&#380;yny Pier&#347;cienia;</text><text fill="#000000" font-family="sans-serif" font-size="13" lengthAdjust="spacing" textLength="131.2188" x="350.3586" y="329.3325">* mo&#380;e porusza&#263; si&#281;</text><text fill="#000000" font-family="sans-serif" font-size="13" lengthAdjust="spacing" textLength="162.3794" x="334.7783" y="344.4653">samodzielnie lub z armi&#261;</text><text fill="#000000" font-family="sans-serif" font-size="13" lengthAdjust="spacing" textLength="6.5" x="340.5388" y="359.5981">*</text><text fill="#FF8C00" font-family="sans-serif" font-size="13" lengthAdjust="spacing" textLength="140.2261" x="351.1711" y="359.5981">musi si&#281;&#160;zatrzyma&#263; w</text><text fill="#FF8C00" font-family="sans-serif" font-size="13" lengthAdjust="spacing" textLength="168.4604" x="331.7378" y="374.731">regionie z twierdz&#261; Cienia</text><text fill="#000000" font-family="sans-serif" font-size="13" lengthAdjust="spacing" textLength="6.5" x="326.52" y="389.8638">*</text><text fill="#CD5C5C" font-family="sans-serif" font-size="13" lengthAdjust="spacing" textLength="168.2637" x="337.1523" y="389.8638">nie mo&#380;e przyby&#263;/opu&#347;ci&#263;</text><text fill="#CD5C5C" font-family="sans-serif" font-size="13" lengthAdjust="spacing" textLength="127.4482" x="352.2439" y="404.9966">regionu z przyjazn&#261;</text><text fill="#CD5C5C" font-family="sans-serif" font-size="13" lengthAdjust="spacing" textLength="118.6567" x="356.6396" y="420.1294">obl&#281;&#380;on&#261; twierdz&#261;</text></g><!--link towarzysze to druzyna--><g id="link_towarzysze_druzyna"><path d="M329.12,129.78 C317.62,147.18 297.4,173.22 272.52,186 C258.98,192.95 215.51,183.48 204.52,194 C168.23,228.73 169.1727,286.8642 173.5227,322.4842 " fill="none" id="towarzysze-to-druzyna" style="stroke:#181818;stroke-width:1.0;stroke-dasharray:7.0,7.0;"/><polygon fill="#181818" points="174.25,328.44,177.1295,319.0215,173.6439,323.4769,169.1885,319.9913,174.25,328.44" style="stroke:#181818;stroke-width:1.0;"/><text fill="#000000" font-family="sans-serif" font-size="13" lengthAdjust="spacing" textLength="66.3394" x="226.1975" y="207.0669">s&#261; cz&#281;&#347;ci&#261;</text><text fill="#000000" font-family="sans-serif" font-size="13" lengthAdjust="spacing" textLength="99.9692" x="209.3825" y="222.1997">dru&#380;yny dop&#243;ki</text><text fill="#000000" font-family="sans-serif" font-size="13" lengthAdjust="spacing" textLength="39.2031" x="205.52" y="237.3325">jej nie</text><text fill="#8A2BE2" font-family="sans-serif" font-size="13" lengthAdjust="spacing" textLength="64.3589" x="248.8554" y="237.3325">opuszcz&#261;;</text><text fill="#000000" font-family="sans-serif" font-size="13" lengthAdjust="spacing" textLength="105.9233" x="206.4055" y="252.4653">jeden przewodzi</text></g><!--link Gollum to druzyna--><g id="link_Gollum_druzyna"><path d="M71.56,129.82 C46.77,157.33 6,212.37 29.52,256 C50.75,295.38 89.9939,319.1233 124.9339,334.4233 " fill="none" id="Gollum-to-druzyna" style="stroke:#181818;stroke-width:1.0;stroke-dasharray:7.0,7.0;"/><polygon fill="#181818" points="130.43,336.83,123.7903,329.5558,125.8499,334.8244,120.5813,336.884,130.43,336.83" style="stroke:#181818;stroke-width:1.0;"/><text fill="#000000" font-family="sans-serif" font-size="13" lengthAdjust="spacing" textLength="127.207" x="30.52" y="214.5669">pod&#261;&#380;a za dru&#380;yna;</text><text fill="#000000" font-family="sans-serif" font-size="13" lengthAdjust="spacing" textLength="98.1538" x="45.0466" y="229.6997">przewodzi, gdy</text><text fill="#8A2BE2" font-family="sans-serif" font-size="13" lengthAdjust="spacing" textLength="125.874" x="31.1865" y="244.8325">braknie towarzyszy</text></g><!--link powiernicy to druzyna--><g id="link_powiernicy_druzyna"><path d="M192.36,138.04 C184.51,153.68 175.55,174.39 171.52,194 C161.91,240.71 167.3384,290.7208 172.6184,322.5608 " fill="none" id="powiernicy-to-druzyna" style="stroke:#181818;stroke-width:1.0;"/><polygon fill="#181818" points="173.6,328.48,176.0738,318.9469,172.782,323.5474,168.1815,320.2556,173.6,328.48" style="stroke:#181818;stroke-width:1.0;"/></g><!--link rzecznikSaurona to region--><g id="link_rzecznikSaurona_region"><path d="M618.36,129.62 C633.32,196.38 686.3679,433.0652 701.3579,499.9552 " fill="none" id="rzecznikSaurona-to-region" style="stroke:#181818;stroke-width:1.0;"/><polygon fill="#181818" points="702.67,505.81,704.6051,496.1531,701.5766,500.931,696.7987,497.9025,702.67,505.81" style="stroke:#181818;stroke-width:1.0;"/><text fill="#000000" font-family="sans-serif" font-size="13" lengthAdjust="spacing" textLength="4.1323" x="777.4179" y="299.0669">&#160;</text><text fill="#000000" font-family="sans-serif" font-size="13" lengthAdjust="spacing" textLength="131.2188" x="713.8747" y="314.1997">* mo&#380;e porusza&#263; si&#281;</text><text fill="#000000" font-family="sans-serif" font-size="13" lengthAdjust="spacing" textLength="162.3794" x="698.2944" y="329.3325">samodzielnie lub z armi&#261;</text><text fill="#000000" font-family="sans-serif" font-size="13" lengthAdjust="spacing" textLength="6.5" x="684.52" y="344.4653">*</text><text fill="#FF0000" font-family="sans-serif" font-size="13" lengthAdjust="spacing" textLength="179.2959" x="695.1523" y="344.4653">bez armii nie mo&#380;e przyby&#263;</text><text fill="#FF0000" font-family="sans-serif" font-size="13" lengthAdjust="spacing" textLength="125.2139" x="716.8772" y="359.5981">do regionu z wrog&#261;</text><text fill="#FF0000" font-family="sans-serif" font-size="13" lengthAdjust="spacing" textLength="138.5059" x="710.2312" y="374.731">nieobl&#281;&#380;on&#261; twierdz&#261;</text><text fill="#000000" font-family="sans-serif" font-size="13" lengthAdjust="spacing" textLength="6.5" x="690.0361" y="389.8638">*</text><text fill="#CD5C5C" font-family="sans-serif" font-size="13" lengthAdjust="spacing" textLength="168.2637" x="700.6684" y="389.8638">nie mo&#380;e przyby&#263;/opu&#347;ci&#263;</text><text fill="#CD5C5C" font-family="sans-serif" font-size="13" lengthAdjust="spacing" textLength="127.4482" x="715.76" y="404.9966">regionu z przyjazn&#261;</text><text fill="#CD5C5C" font-family="sans-serif" font-size="13" lengthAdjust="spacing" textLength="118.6567" x="720.1557" y="420.1294">obl&#281;&#380;on&#261; twierdz&#261;</text></g><!--link Saruman to region--><g id="link_Saruman_region"><path d="M468.67,129.54 C478.49,179.06 512.21,325.7 583.52,424 C608.95,459.06 644.7691,485.3428 672.3591,502.7928 " fill="none" id="Saruman-to-region" style="stroke:#181818;stroke-width:1.0;"/><polygon fill="#181818" points="677.43,506,671.9618,497.8086,673.2043,503.3273,667.6855,504.5698,677.43,506" style="stroke:#181818;stroke-width:1.0;"/><text fill="#000000" font-family="sans-serif" font-size="13" lengthAdjust="spacing" textLength="59.4204" x="585.2532" y="344.5669">nie mo&#380;e</text><text fill="#000000" font-family="sans-serif" font-size="13" lengthAdjust="spacing" textLength="49.1245" x="590.4011" y="359.6997">opu&#347;ci&#263;</text><text fill="#000000" font-family="sans-serif" font-size="13" lengthAdjust="spacing" textLength="60.8867" x="584.52" y="374.8325">Orthanku</text></g><!--link Nazgule to region--><g id="link_Nazgule_region"><path d="M967.3,129.7 C965.79,180.31 955.09,330.95 882.52,424 C845.54,471.41 784.801,497.7997 744.981,511.3297 " fill="none" id="Nazgule-to-region" style="stroke:#181818;stroke-width:1.0;"/><polygon fill="#181818" points="739.3,513.26,749.1084,514.1519,744.0342,511.6514,746.5347,506.5772,739.3,513.26" style="stroke:#181818;stroke-width:1.0;"/><text fill="#000000" font-family="sans-serif" font-size="13" lengthAdjust="spacing" textLength="4.1323" x="1039.4179" y="322.0669">&#160;</text><text fill="#000000" font-family="sans-serif" font-size="13" lengthAdjust="spacing" textLength="131.2188" x="975.8747" y="337.1997">* mo&#380;e porusza&#263; si&#281;</text><text fill="#000000" font-family="sans-serif" font-size="13" lengthAdjust="spacing" textLength="162.3794" x="960.2944" y="352.3325">samodzielnie lub z armi&#261;</text><text fill="#000000" font-family="sans-serif" font-size="13" lengthAdjust="spacing" textLength="6.5" x="946.52" y="367.4653">*</text><text fill="#FF0000" font-family="sans-serif" font-size="13" lengthAdjust="spacing" textLength="179.2959" x="957.1523" y="367.4653">bez armii nie mo&#380;e przyby&#263;</text><text fill="#FF0000" font-family="sans-serif" font-size="13" lengthAdjust="spacing" textLength="125.2139" x="978.8772" y="382.5981">do regionu z wrog&#261;</text><text fill="#FF0000" font-family="sans-serif" font-size="13" lengthAdjust="spacing" textLength="138.5059" x="972.2312" y="397.731">nieobl&#281;&#380;on&#261; twierdz&#261;</text></g><!--link dowodzcyWolnychLudow to region--><g id="link_dowodzcyWolnychLudow_region"><path d="M1108.24,146.19 C1145.21,208.23 1210.29,341.71 1144.52,424 C1093.48,487.87 838.0221,513.0765 745.2221,520.2665 " fill="none" id="dowodzcyWolnychLudow-to-region" style="stroke:#181818;stroke-width:1.0;"/><polygon fill="#181818" points="739.24,520.73,748.5221,524.0228,744.2251,520.3438,747.9041,516.0467,739.24,520.73" style="stroke:#181818;stroke-width:1.0;"/><text fill="#000000" font-family="sans-serif" font-size="13" lengthAdjust="spacing" textLength="23.0737" x="1195.1655" y="337.0669">bez</text><text fill="#000000" font-family="sans-serif" font-size="13" lengthAdjust="spacing" textLength="66.3647" x="1173.52" y="352.1997">przyjaznej</text><text fill="#000000" font-family="sans-serif" font-size="13" lengthAdjust="spacing" textLength="33.1982" x="1190.1033" y="367.3325">armii</text><text fill="#000000" font-family="sans-serif" font-size="13" lengthAdjust="spacing" textLength="31.7129" x="1190.8459" y="382.4653">ginie</text></g><!--link jednostki to armia--><g id="link_jednostki_armia"><path d="M1361.52,154.0398 C1361.52,154.3437 1361.52,154.6488 1361.52,154.9551 C1361.52,159.8554 1361.52,165.0581 1361.52,170.496 C1361.52,181.3716 1361.52,193.1878 1361.52,205.4062 C1361.52,254.28 1361.52,303.59 1361.52,330.89 " fill="none" id="jednostki-to-armia" style="stroke:#181818;stroke-width:1.0;"/><polygon fill="#181818" points="1361.52,336.89,1365.52,327.89,1361.52,331.89,1357.52,327.89,1361.52,336.89" style="stroke:#181818;stroke-width:1.0;"/><text fill="#000000" font-family="sans-serif" font-size="13" lengthAdjust="spacing" textLength="57.5098" x="1429.6623" y="222.0669">max 10 /</text><text fill="#000000" font-family="sans-serif" font-size="13" lengthAdjust="spacing" textLength="191.7944" x="1362.52" y="237.1997">max 5 (w obl&#281;&#380;onej twierdzy)</text></g><!--link armia to region--><g id="link_armia_region"><path d="M1349.9,373.39 C1332.53,397.53 1297.24,439.93 1254.52,455 C1067.83,520.88 831.7596,524.7879 745.1196,523.8079 " fill="none" id="armia-to-region" style="stroke:#181818;stroke-width:1.0;"/><polygon fill="#181818" points="739.12,523.74,748.0742,527.8415,744.1197,523.7966,748.1647,519.842,739.12,523.74" style="stroke:#181818;stroke-width:1.0;"/></g><!--link druzyna to region--><g id="link_druzyna_region"><path d="M201.6,381.52 C224.01,404.59 260.18,437.53 298.52,455 C428.4,514.17 596.5303,522.387 667.9203,523.137 " fill="none" id="druzyna-to-region" style="stroke:#181818;stroke-width:1.0;"/><polygon fill="#181818" points="673.92,523.2,664.9625,519.1057,668.9203,523.1475,664.8785,527.1052,673.92,523.2" style="stroke:#181818;stroke-width:1.0;"/></g><!--reverse link region to osada--><g id="link_region_osada"><path d="M737.4417,545.5784 C757.3417,559.7984 779.32,578.19 796.52,603 C832.42,654.78 838.12,670.74 859.52,730 C862.375,737.9075 864.9031,746.4425 867.0952,754.8372 C867.6432,756.9359 868.1702,759.0258 868.676,761.0949 C868.9289,762.1295 869.1766,763.1588 869.4189,764.1815 C869.4492,764.3094 869.4794,764.4371 869.5095,764.5647 " fill="none" id="region-backto-osada" style="stroke:#181818;stroke-width:1.0;"/><polygon fill="#181818" points="732.56,542.09,737.557,550.577,736.6281,544.997,742.2082,544.068,732.56,542.09" style="stroke:#181818;stroke-width:1.0;"/></g><!--reverse link region to fortyfikacja--><g id="link_region_fortyfikacja"><path d="M724.3939,546.8659 C736.1239,561.9459 748.57,580.27 757.52,603 C783.25,668.39 790.1,753 791.9,788.8 " fill="none" id="region-backto-fortyfikacja" style="stroke:#181818;stroke-width:1.0;"/><polygon fill="#181818" points="720.71,542.13,723.0785,551.6898,723.7799,546.0766,729.3931,546.778,720.71,542.13" style="stroke:#181818;stroke-width:1.0;"/></g><!--SRC=[tLQ_ZjG-4Exp5ADKiE8EVWND0IlnHq98Fm422PeqiublyIQPMJc9Genea4xt38Y6TxYIgxZTzsBiJNRZ78Y60j7PavdvllbcRCUej4PQ5WhMNDMOQWKV8W2pDzVSeh5TPLLWNdEhbI6TTe0Ln8TjGcjPRRz89j8O1q5FkIYQCZ1LHRFKFaMr_IJBsCEFFLwZQKgaYTLObLhI-Mji31Fw3Azw6_J6U1AJMZJ4UQMLzt8XZmVJvlFsKem9MNX8or8mNVJ7w6DqY5-fZ4IaN4yaCchP598dL4WLklR6SOgCMyviBvfihYxSBfuaV8vMCYhlvDPNtmeLAZdaUSi5TUcx_ninX3aJwhyb95-lBjeu968Qs_MwFJ7Dzb8s2RqCMdVmHbDg7Eq93MS-LbQ25rzNHBDh6N6jOC5rpINmQMy_WTciTUHcCyWAXAL1QKr2owo3XS4SMiDBxPWxN0qQkC8ieHjhjWYyADGIQNEMKEs6BhERivjIMpHfxz5yq36A3aCCnyV7ypsFDSFzKwOQKYxOF8WV5OrwexbGTJpdTLFPr8eKJKAzH1sC5RgNq0nAtbwwus346pVdu4OfeGfBwOzM1Sc1Afe5MA-X8pqB8P-WoLyOaKt5yxAfj4_m_Ql5MWYNBcERq2yZTeK8XeMz6F3Oixk6z8moZVHAPV7SHVJ41MNHRSvlIxckhitv16qKjGDh1Cj5hT3w9lpAM_ha3XMBqu5Rs8dvC8OdK8bNQYN0SP2isI1unkkhYrmdj58hSBn_rx3DsJtdd2boD9Kx9phQtJmXv9gppTds4a66geTpBTq7tG8Po4bzOpmtgexGlgGk6jsAHqTxg6XwMHsvZyCC_eaXye8lrEwxXkljdPJX_JE6GqVTaRlMpM5MVjhAltE- -jSYb7XF9w4HZHUcVeUKDr4qtBV_H5-YdxuDGMd2oC-vrrYj-djMBc0jIQF3C-TY_DL_0d69x-6_Et0x8RUw2pTQsCFBoUpXkvjn5FaGE016msCpCeqU4tUvu-G1QJLNEGOcoLdL7FwRx40nUDbEsTJTgSunNQ63SN1mN-hV0GMMmFS7]--></g></svg>