<svg xmlns="http://www.w3.org/2000/svg" xmlns:xlink="http://www.w3.org/1999/xlink" contentStyleType="text/css" height="964px" preserveAspectRatio="none" style="width:995px;height:964px;background:#FFFFFF;" version="1.1" viewBox="0 0 995 964" width="995px" zoomAndPan="magnify"><defs/><g><!--cluster postacie--><g id="cluster_postacie"><rect fill="none" height="104" rx="2.5" ry="2.5" style="stroke:#181818;stroke-width:1.0;" width="457" x="236" y="7"/><text fill="#000000" font-family="sans-serif" font-size="14" font-weight="bold" lengthAdjust="spacing" textLength="66.7051" x="431.1475" y="21.9951">postacie</text></g><!--cluster jednostki--><g id="cluster_jednostki"><rect fill="none" height="103" rx="2.5" ry="2.5" style="stroke:#181818;stroke-width:1.0;" width="264" x="725" y="306.5"/><text fill="#000000" font-family="sans-serif" font-size="14" font-weight="bold" lengthAdjust="spacing" textLength="73.0352" x="820.4824" y="321.4951">jednostki</text></g><!--cluster dowodzcy--><g id="cluster_dowodzcy"><rect fill="none" height="120" rx="2.5" ry="2.5" style="stroke:#181818;stroke-width:1.0;" width="235" x="7" y="298"/><text fill="#000000" font-family="sans-serif" font-size="14" font-weight="bold" lengthAdjust="spacing" textLength="77.7861" x="85.6069" y="312.9951">dow&#243;dzcy</text></g><!--cluster narod--><g id="cluster_narod"><rect fill="none" height="246" rx="2.5" ry="2.5" style="stroke:#181818;stroke-width:1.0;" width="168" x="308" y="605"/><text fill="#000000" font-family="sans-serif" font-size="14" font-weight="bold" lengthAdjust="spacing" textLength="45.958" x="369.021" y="619.9951">nar&#243;d</text></g><!--cluster osada--><g id="cluster_osada"><rect fill="none" height="227" rx="2.5" ry="2.5" style="stroke:#181818;stroke-width:1.0;" width="238" x="622" y="731"/><text fill="#000000" font-family="sans-serif" font-size="14" font-weight="bold" lengthAdjust="spacing" textLength="46.8672" x="717.5664" y="745.9951">osada</text></g><!--entity towarzysze--><g id="elem_towarzysze"><rect fill="#F1F1F1" height="36.2969" rx="2.5" ry="2.5" style="stroke:#181818;stroke-width:0.5;" width="98.7295" x="252.5" y="50.5"/><text fill="#000000" font-family="sans-serif" font-size="14" lengthAdjust="spacing" textLength="78.7295" x="262.5" y="73.4951">towarzysze</text></g><!--entity powiernicy--><g id="elem_powiernicy"><rect fill="#F1F1F1" height="52.5938" rx="2.5" ry="2.5" style="stroke:#181818;stroke-width:0.5;" width="95.9814" x="492" y="42"/><text fill="#000000" font-family="sans-serif" font-size="14" lengthAdjust="spacing" textLength="75.9063" x="502" y="64.9951">powiernicy</text><text fill="#000000" font-family="sans-serif" font-size="14" lengthAdjust="spacing" textLength="75.9814" x="502" y="81.292">pier&#347;cienia</text></g><!--entity Gollum--><g id="elem_Gollum"><rect fill="#F1F1F1" height="36.2969" rx="2.5" ry="2.5" style="stroke:#181818;stroke-width:0.5;" width="69.7041" x="387" y="50.5"/><text fill="#000000" font-family="sans-serif" font-size="14" lengthAdjust="spacing" textLength="49.7041" x="397" y="73.4951">Gollum</text></g><!--entity slugi--><g id="elem_slugi"><rect fill="#F1F1F1" height="36.2969" rx="2.5" ry="2.5" style="stroke:#181818;stroke-width:0.5;" width="52.9219" x="623.5" y="50.5"/><text fill="#000000" font-family="sans-serif" font-size="14" lengthAdjust="spacing" textLength="32.9219" x="633.5" y="73.4951">s&#322;ugi</text></g><!--entity regularne--><g id="elem_regularne"><rect fill="#F1F1F1" height="36.2969" rx="2.5" ry="2.5" style="stroke:#181818;stroke-width:0.5;" width="87.8398" x="877" y="349.5"/><text fill="#000000" font-family="sans-serif" font-size="14" lengthAdjust="spacing" textLength="67.8398" x="887" y="372.4951">regularne</text></g><!--entity elitarne--><g id="elem_elitarne"><rect fill="#F1F1F1" height="36.2969" rx="2.5" ry="2.5" style="stroke:#181818;stroke-width:0.5;" width="73.7031" x="768" y="349.5"/><text fill="#000000" font-family="sans-serif" font-size="14" lengthAdjust="spacing" textLength="53.7031" x="778" y="372.4951">elitarne</text></g><!--entity Nazgule--><g id="elem_Nazgule"><rect fill="#F1F1F1" height="36.2969" rx="2.5" ry="2.5" style="stroke:#181818;stroke-width:0.5;" width="76.6631" x="148.5" y="349.5"/><text fill="#000000" font-family="sans-serif" font-size="14" lengthAdjust="spacing" textLength="56.6631" x="158.5" y="372.4951">Nazg&#251;le</text></g><!--entity dowodzcyWolnychLudow--><g id="elem_dowodzcyWolnychLudow"><rect fill="#F1F1F1" height="68.8906" rx="2.5" ry="2.5" style="stroke:#181818;stroke-width:0.5;" width="89.6855" x="23" y="333"/><text fill="#000000" font-family="sans-serif" font-size="14" lengthAdjust="spacing" textLength="69.6855" x="33" y="355.9951">dow&#243;dzcy</text><text fill="#000000" font-family="sans-serif" font-size="14" lengthAdjust="spacing" textLength="60.0264" x="33" y="372.292">Wolnych</text><text fill="#000000" font-family="sans-serif" font-size="14" lengthAdjust="spacing" textLength="45.5752" x="33" y="388.5889">Lud&#243;w</text></g><!--entity region--><g id="elem_region"><rect fill="#F1F1F1" height="36.2969" rx="2.5" ry="2.5" style="stroke:#181818;stroke-width:0.5;" width="64.584" x="394.5" y="640"/><text fill="#000000" font-family="sans-serif" font-size="14" lengthAdjust="spacing" textLength="44.584" x="404.5" y="662.9951">region</text></g><g id="elem_GMN17"><path d="M324,749 L324,834.6641 A0,0 0 0 0 324,834.6641 L459.7212,834.6641 A0,0 0 0 0 459.7212,834.6641 L459.7212,759 L449.7212,749 L407.21,749 L422.42,676.26 L399.21,749 L324,749 A0,0 0 0 0 324,749 " fill="#FEFFDD" style="stroke:#181818;stroke-width:0.5;"/><path d="M449.7212,749 L449.7212,759 L459.7212,759 L449.7212,749 " fill="#FEFFDD" style="stroke:#181818;stroke-width:0.5;"/><text fill="#000000" font-family="sans-serif" font-size="13" font-weight="bold" lengthAdjust="spacing" textLength="43.126" x="330" y="766.0669">wolny</text><text fill="#000000" font-family="sans-serif" font-size="13" lengthAdjust="spacing" textLength="67.4629" x="377.2583" y="766.0669">dla gracza</text><text fill="#000000" font-family="sans-serif" font-size="13" lengthAdjust="spacing" textLength="112.7344" x="330" y="781.1997">gdy brak wrogich</text><text fill="#000000" font-family="sans-serif" font-size="13" lengthAdjust="spacing" textLength="76.0195" x="330" y="796.3325">armii i osad</text><text fill="#000000" font-family="sans-serif" font-size="13" lengthAdjust="spacing" textLength="100.439" x="330" y="811.4653">(poza oblegan&#261;</text><text fill="#000000" font-family="sans-serif" font-size="13" lengthAdjust="spacing" textLength="60.7979" x="330" y="826.5981">twierdz&#261;)</text></g><!--entity wioska--><g id="elem_wioska"><rect fill="#F1F1F1" height="36.2969" rx="2.5" ry="2.5" style="stroke:#181818;stroke-width:0.5;" width="67.8857" x="665" y="774"/><text fill="#000000" font-family="sans-serif" font-size="14" lengthAdjust="spacing" textLength="47.8857" x="675" y="796.9951">wioska</text></g><!--entity miasto--><g id="elem_miasto"><rect fill="#F1F1F1" height="36.2969" rx="2.5" ry="2.5" style="stroke:#181818;stroke-width:0.5;" width="67.4551" x="768.5" y="774"/><text fill="#000000" font-family="sans-serif" font-size="14" lengthAdjust="spacing" textLength="47.4551" x="778.5" y="796.9951">miasto</text></g><!--entity twierdza--><g id="elem_twierdza"><rect fill="#F1F1F1" height="36.2969" rx="2.5" ry="2.5" style="stroke:#181818;stroke-width:0.5;" width="80.0127" x="665" y="898"/><text fill="#000000" font-family="sans-serif" font-size="14" lengthAdjust="spacing" textLength="60.0127" x="675" y="920.9951">twierdza</text></g><!--entity druzyna--><g id="elem_druzyna"><rect fill="#F1F1F1" height="52.5938" rx="2.5" ry="2.5" style="stroke:#181818;stroke-width:0.5;" width="95.5371" x="379" y="500.5"/><text fill="#000000" font-family="sans-serif" font-size="14" lengthAdjust="spacing" textLength="58.4951" x="389" y="523.4951">Dru&#380;yna</text><text fill="#000000" font-family="sans-serif" font-size="14" lengthAdjust="spacing" textLength="75.5371" x="389" y="539.792">Pier&#347;cienia</text></g><!--entity armia--><g id="elem_armia"><rect fill="#F1F1F1" height="36.2969" rx="2.5" ry="2.5" style="stroke:#181818;stroke-width:0.5;" width="60.4414" x="703" y="509"/><text fill="#000000" font-family="sans-serif" font-size="14" lengthAdjust="spacing" textLength="40.4414" x="713" y="531.9951">armia</text></g><!--entity fortyfikacja--><g id="elem_fortyfikacja"><rect fill="#F1F1F1" height="36.2969" rx="2.5" ry="2.5" style="stroke:#181818;stroke-width:0.5;" width="98.6953" x="495.5" y="774"/><text fill="#000000" font-family="sans-serif" font-size="14" lengthAdjust="spacing" textLength="78.6953" x="505.5" y="796.9951">fortyfikacja</text></g><!--link towarzysze to dowodzcyWolnychLudow--><g id="link_towarzysze_dowodzcyWolnychLudow"><path d="M252.35,81.5 C211.49,93.92 155.1,117.37 122,158 C80.55,208.88 70.8421,281.9971 68.6621,326.7171 " fill="none" id="towarzysze-to-dowodzcyWolnychLudow" style="stroke:#8A2BE2;stroke-width:1.0;stroke-dasharray:7.0,7.0;"/><polygon fill="#8A2BE2" points="68.37,332.71,72.8035,323.9154,68.6134,327.7159,64.813,323.5259,68.37,332.71" style="stroke:#8A2BE2;stroke-width:1.0;"/><text fill="#000000" font-family="sans-serif" font-size="13" lengthAdjust="spacing" textLength="100.439" x="136.9395" y="171.0669">po opuszczeniu</text><text fill="#000000" font-family="sans-serif" font-size="13" lengthAdjust="spacing" textLength="128.3179" x="123" y="186.1997">Dru&#380;yny Pier&#347;cienia</text></g><!--link towarzysze to druzyna--><g id="link_towarzysze_druzyna"><path d="M299.95,86.63 C296.1,123.17 289.65,211.21 307,282 C327.9,367.28 378.511,452.4087 406.411,495.3487 " fill="none" id="towarzysze-to-druzyna" style="stroke:#8A2BE2;stroke-width:1.0;stroke-dasharray:7.0,7.0;"/><polygon fill="#8A2BE2" points="409.68,500.38,408.1306,490.6538,406.9558,496.1873,401.4223,495.0125,409.68,500.38" style="stroke:#8A2BE2;stroke-width:1.0;"/><text fill="#000000" font-family="sans-serif" font-size="13" lengthAdjust="spacing" textLength="66.3394" x="328.6775" y="233.0669">s&#261; cz&#281;&#347;ci&#261;</text><text fill="#000000" font-family="sans-serif" font-size="13" lengthAdjust="spacing" textLength="99.9692" x="311.8625" y="248.1997">dru&#380;yny dop&#243;ki</text><text fill="#000000" font-family="sans-serif" font-size="13" lengthAdjust="spacing" textLength="107.6943" x="308" y="263.3325">jej nie opuszcz&#261;;</text><text fill="#000000" font-family="sans-serif" font-size="13" lengthAdjust="spacing" textLength="105.9233" x="308.8855" y="278.4653">jeden przewodzi</text></g><!--link Gollum to druzyna--><g id="link_Gollum_druzyna"><path d="M422.14,86.58 C422.45,122.66 423.21,209.32 424,282 C424.86,361.64 426.0017,449.9005 426.5817,494.3605 " fill="none" id="Gollum-to-druzyna" style="stroke:#181818;stroke-width:1.0;stroke-dasharray:7.0,7.0;"/><polygon fill="#181818" points="426.66,500.36,430.5423,491.3086,426.5948,495.3604,422.5429,491.4129,426.66,500.36" style="stroke:#181818;stroke-width:1.0;"/><text fill="#000000" font-family="sans-serif" font-size="13" lengthAdjust="spacing" textLength="127.207" x="425" y="240.5669">pod&#261;&#380;a za dru&#380;yna;</text><text fill="#000000" font-family="sans-serif" font-size="13" lengthAdjust="spacing" textLength="98.1538" x="439.5266" y="255.6997">przewodzi, gdy</text><text fill="#000000" font-family="sans-serif" font-size="13" lengthAdjust="spacing" textLength="125.874" x="425.6665" y="270.8325">braknie towarzyszy</text></g><!--link powiernicy to druzyna--><g id="link_powiernicy_druzyna"><path d="M547.28,95.12 C557.59,135.5 573.46,216.11 557,282 C535.42,368.38 480.3597,452.8164 449.7397,495.4564 " fill="none" id="powiernicy-to-druzyna" style="stroke:#181818;stroke-width:1.0;"/><polygon fill="#181818" points="446.24,500.33,454.7387,495.3528,449.1565,496.2687,448.2406,490.6865,446.24,500.33" style="stroke:#181818;stroke-width:1.0;"/></g><!--link slugi to region--><g id="link_slugi_region"><path d="M650,86.71 C650,107.25 650,142.63 650,173 C650,173 650,173 650,528 C650,614.77 527.8762,643.2374 465.8362,652.3574 " fill="none" id="slugi-to-region" style="stroke:#181818;stroke-width:1.0;"/><polygon fill="#181818" points="459.9,653.23,469.3861,655.8785,464.8468,652.5028,468.2225,647.9636,459.9,653.23" style="stroke:#181818;stroke-width:1.0;"/></g><!--link Nazgule to region--><g id="link_Nazgule_region"><path d="M186.16,385.72 C185.3,421.66 188.16,505.66 229,558 C270.97,611.78 344.117,637.0937 388.587,648.4637 " fill="none" id="Nazgule-to-region" style="stroke:#181818;stroke-width:1.0;"/><polygon fill="#181818" points="394.4,649.95,386.6713,643.8453,389.5558,648.7115,384.6897,651.596,394.4,649.95" style="stroke:#181818;stroke-width:1.0;"/><text fill="#000000" font-family="sans-serif" font-size="13" lengthAdjust="spacing" textLength="130.9014" x="230" y="516.5669">bez przyjaznej armii</text><text fill="#000000" font-family="sans-serif" font-size="13" lengthAdjust="spacing" textLength="101.334" x="244.7837" y="531.6997">nie wchodz&#261; do</text><text fill="#000000" font-family="sans-serif" font-size="13" lengthAdjust="spacing" textLength="106.9897" x="241.9558" y="546.8325">wrogiej twierdzy</text></g><!--link dowodzcyWolnychLudow to region--><g id="link_dowodzcyWolnychLudow_region"><path d="M68.82,402.29 C71.67,444.28 82.75,515.56 124,558 C198.25,634.39 326.1723,651.4958 388.0423,655.4658 " fill="none" id="dowodzcyWolnychLudow-to-region" style="stroke:#181818;stroke-width:1.0;"/><polygon fill="#181818" points="394.03,655.85,385.3046,651.2819,389.0403,655.5298,384.7923,659.2655,394.03,655.85" style="stroke:#181818;stroke-width:1.0;"/><text fill="#000000" font-family="sans-serif" font-size="13" lengthAdjust="spacing" textLength="23.0737" x="146.6455" y="509.0669">bez</text><text fill="#000000" font-family="sans-serif" font-size="13" lengthAdjust="spacing" textLength="66.3647" x="125" y="524.1997">przyjaznej</text><text fill="#000000" font-family="sans-serif" font-size="13" lengthAdjust="spacing" textLength="33.1982" x="141.5833" y="539.3325">armii</text><text fill="#000000" font-family="sans-serif" font-size="13" lengthAdjust="spacing" textLength="28.0693" x="144.1477" y="554.4653">gin&#261;</text></g><!--link jednostki to armia--><g id="link_jednostki_armia"><path d="M733,409.6842 C733,409.8977 733,410.1116 733,410.326 C733,410.7548 733,411.1855 733,411.618 C733,412.483 733,413.3553 733,414.2343 C733,417.7503 733,421.3734 733,425.0675 C733,454.62 733,482.71 733,502.75 " fill="none" id="jednostki-to-armia" style="stroke:#181818;stroke-width:1.0;"/><polygon fill="#181818" points="733,508.75,737,499.75,733,503.75,729,499.75,733,508.75" style="stroke:#181818;stroke-width:1.0;"/><text fill="#000000" font-family="sans-serif" font-size="13" lengthAdjust="spacing" textLength="57.5098" x="801.1423" y="447.0669">max 10 /</text><text fill="#000000" font-family="sans-serif" font-size="13" lengthAdjust="spacing" textLength="191.7944" x="734" y="462.1997">max 5 (w obl&#281;&#380;onej twierdzy)</text></g><!--link armia to region--><g id="link_armia_region"><path d="M721.14,545.21 C710.77,559.01 694.49,577.84 676,589 C606.17,631.14 515.7361,647.0055 465.8361,653.0755 " fill="none" id="armia-to-region" style="stroke:#181818;stroke-width:1.0;"/><polygon fill="#181818" points="459.88,653.8,469.2972,656.684,464.8434,653.1962,468.3311,648.7425,459.88,653.8" style="stroke:#181818;stroke-width:1.0;"/></g><!--link druzyna to region--><g id="link_druzyna_region"><path d="M427,553.8 C427,579.38 427,611.86 427,633.89 " fill="none" id="druzyna-to-region" style="stroke:#181818;stroke-width:1.0;"/><polygon fill="#181818" points="427,639.89,431,630.89,427,634.89,423,630.89,427,639.89" style="stroke:#181818;stroke-width:1.0;"/></g><!--reverse link region to osada--><g id="link_region_osada"><path d="M465.8195,659.8351 C507.3095,662.2951 572.11,672.59 612,715 C614.88,718.0625 617.3264,721.4978 619.402,725.1707 C620.4398,727.0072 621.3849,728.903 622.2452,730.8414 " fill="none" id="region-backto-osada" style="stroke:#181818;stroke-width:1.0;"/><polygon fill="#181818" points="459.83,659.48,468.5775,664.0057,464.8212,659.7759,469.051,656.0197,459.83,659.48" style="stroke:#181818;stroke-width:1.0;"/></g><!--reverse link region to fortyfikacja--><g id="link_region_fortyfikacja"><path d="M446.429,680.733 C469.039,706.023 506.95,748.44 529.57,773.74 " fill="none" id="region-backto-fortyfikacja" style="stroke:#181818;stroke-width:1.0;"/><polygon fill="#181818" points="442.43,676.26,445.4465,685.6355,445.7625,679.9875,451.4105,680.3035,442.43,676.26" style="stroke:#181818;stroke-width:1.0;"/></g><!--SRC=[RLInZjD04Etz5IFJt4NuW88c80g4H8CG5JHk9jwDRnDdnbhRCbv4WvIFG7n6Ij8b-Izc7IVsXkjsPdVUUpFpRAkp6YalD9HSrPWP3JyY07jDrzoYTLtbT90kkJNQaiawm0hYCKofbDFfZo2HmJWe-iX5qMo2L5KqkUaXgjClESRHpsYyNMb58cjjRaHPdJS5MWerwSBKVN8AeRXbvGQP4XnsFefl03-Z4qJTF_Bdmzz2XzelED-ue2vx_DH88iHCQRXBIMuFkpRiHTd6TOHzpGVRdFOIfFGb6DRu6kt6u2GcjApwMZa9N_p_H0oJf8Xh3GkkQzu0BuVy76QprekRpK0L2Bd5p0bxhZfOM5n3QpatNhddDM20ArGftPNi47XHw1pfk4sfzcjMxhYzbzwYqHlmyF3kwH4zUryq-glXGjTpSGrmsLGkSz9laz8mXmwcOmXXFUumkG2gEcuXSyVVliehKnSenULXjpOfhVGAIFmyC1wtRtnEQOBIEksbckZiI4ypydYPwhWzxH6a-G4NfVXQzXnaS2dvoNc2gzukcdmMIP9S8QEppPC-DwmgkdXkafp3GZilhrkX8z7VhoCbpz9cZ-mdBmscrEzBxeTzTD6Jixz5xbiOe8TLYmUCR3OQlpHVqxjl3l46lyEhb_0Y9Nzw3NUjDuCCVSyqOR-FewWlWKb_bwrDMnxzwls5Dnvk3LTh35A2MTKS_f3Ef1XyN4ksTRSqQynMw6ay7RnDaZFFD16y_0S0]--></g></svg>