<svg xmlns="http://www.w3.org/2000/svg" xmlns:xlink="http://www.w3.org/1999/xlink" contentStyleType="text/css" height="996px" preserveAspectRatio="none" style="width:1028px;height:996px;background:#FFFFFF;" version="1.1" viewBox="0 0 1028 996" width="1028px" zoomAndPan="magnify"><defs/><g><!--cluster postacie--><g id="cluster_postacie"><rect fill="none" height="104" rx="2.5" ry="2.5" style="stroke:#181818;stroke-width:1.0;" width="457" x="269" y="7"/><text fill="#000000" font-family="sans-serif" font-size="14" font-weight="bold" lengthAdjust="spacing" textLength="66.7051" x="464.1475" y="21.9951">postacie</text></g><!--cluster jednostki--><g id="cluster_jednostki"><rect fill="none" height="103" rx="2.5" ry="2.5" style="stroke:#181818;stroke-width:1.0;" width="264" x="758" y="322.5"/><text fill="#000000" font-family="sans-serif" font-size="14" font-weight="bold" lengthAdjust="spacing" textLength="73.0352" x="853.4824" y="337.4951">jednostki</text></g><!--cluster dowodzcy--><g id="cluster_dowodzcy"><rect fill="none" height="136" rx="2.5" ry="2.5" style="stroke:#181818;stroke-width:1.0;" width="272" x="7" y="306"/><text fill="#000000" font-family="sans-serif" font-size="14" font-weight="bold" lengthAdjust="spacing" textLength="77.7861" x="104.1069" y="320.9951">dow&#243;dzcy</text></g><!--cluster narod--><g id="cluster_narod"><rect fill="none" height="246" rx="2.5" ry="2.5" style="stroke:#181818;stroke-width:1.0;" width="168" x="341" y="637"/><text fill="#000000" font-family="sans-serif" font-size="14" font-weight="bold" lengthAdjust="spacing" textLength="45.958" x="402.021" y="651.9951">nar&#243;d</text></g><!--cluster osada--><g id="cluster_osada"><rect fill="none" height="227" rx="2.5" ry="2.5" style="stroke:#181818;stroke-width:1.0;" width="238" x="655" y="763"/><text fill="#000000" font-family="sans-serif" font-size="14" font-weight="bold" lengthAdjust="spacing" textLength="46.8672" x="750.5664" y="777.9951">osada</text></g><!--entity towarzysze--><g id="elem_towarzysze"><rect fill="#F1F1F1" height="36.2969" rx="2.5" ry="2.5" style="stroke:#181818;stroke-width:0.5;" width="98.7295" x="285.5" y="50.5"/><text fill="#000000" font-family="sans-serif" font-size="14" lengthAdjust="spacing" textLength="78.7295" x="295.5" y="73.4951">towarzysze</text></g><!--entity powiernicy--><g id="elem_powiernicy"><rect fill="#F1F1F1" height="52.5938" rx="2.5" ry="2.5" style="stroke:#181818;stroke-width:0.5;" width="95.9814" x="525" y="42"/><text fill="#000000" font-family="sans-serif" font-size="14" lengthAdjust="spacing" textLength="75.9063" x="535" y="64.9951">powiernicy</text><text fill="#000000" font-family="sans-serif" font-size="14" lengthAdjust="spacing" textLength="75.9814" x="535" y="81.292">pier&#347;cienia</text></g><!--entity Gollum--><g id="elem_Gollum"><rect fill="#F1F1F1" height="36.2969" rx="2.5" ry="2.5" style="stroke:#181818;stroke-width:0.5;" width="69.7041" x="420" y="50.5"/><text fill="#000000" font-family="sans-serif" font-size="14" lengthAdjust="spacing" textLength="49.7041" x="430" y="73.4951">Gollum</text></g><!--entity slugi--><g id="elem_slugi"><rect fill="#F1F1F1" height="36.2969" rx="2.5" ry="2.5" style="stroke:#181818;stroke-width:0.5;" width="52.9219" x="656.5" y="50.5"/><text fill="#000000" font-family="sans-serif" font-size="14" lengthAdjust="spacing" textLength="32.9219" x="666.5" y="73.4951">s&#322;ugi</text></g><!--entity regularne--><g id="elem_regularne"><rect fill="#F1F1F1" height="36.2969" rx="2.5" ry="2.5" style="stroke:#181818;stroke-width:0.5;" width="87.8398" x="910" y="365.5"/><text fill="#000000" font-family="sans-serif" font-size="14" lengthAdjust="spacing" textLength="67.8398" x="920" y="388.4951">regularne</text></g><!--entity elitarne--><g id="elem_elitarne"><rect fill="#F1F1F1" height="36.2969" rx="2.5" ry="2.5" style="stroke:#181818;stroke-width:0.5;" width="73.7031" x="801" y="365.5"/><text fill="#000000" font-family="sans-serif" font-size="14" lengthAdjust="spacing" textLength="53.7031" x="811" y="388.4951">elitarne</text></g><!--entity Nazgule--><g id="elem_Nazgule"><rect fill="#F1F1F1" height="36.2969" rx="2.5" ry="2.5" style="stroke:#181818;stroke-width:0.5;" width="76.6631" x="177.5" y="365.5"/><text fill="#000000" font-family="sans-serif" font-size="14" lengthAdjust="spacing" textLength="56.6631" x="187.5" y="388.4951">Nazg&#251;le</text></g><!--entity dowodzcyWolnychLudow--><g id="elem_dowodzcyWolnychLudow"><rect fill="#F1F1F1" height="68.8906" rx="2.5" ry="2.5" style="stroke:#181818;stroke-width:0.5;" width="91.5791" x="50" y="349"/><text fill="#000000" font-family="sans-serif" font-size="14" lengthAdjust="spacing" textLength="71.5791" x="60" y="371.9951">Dow&#243;dzcy</text><text fill="#000000" font-family="sans-serif" font-size="14" lengthAdjust="spacing" textLength="60.0264" x="60" y="388.292">Wolnych</text><text fill="#000000" font-family="sans-serif" font-size="14" lengthAdjust="spacing" textLength="45.5752" x="60" y="404.5889">Lud&#243;w</text></g><!--entity region--><g id="elem_region"><rect fill="#F1F1F1" height="36.2969" rx="2.5" ry="2.5" style="stroke:#181818;stroke-width:0.5;" width="64.584" x="427.5" y="672"/><text fill="#000000" font-family="sans-serif" font-size="14" lengthAdjust="spacing" textLength="44.584" x="437.5" y="694.9951">region</text></g><g id="elem_GMN17"><path d="M357,781 L357,866.6641 A0,0 0 0 0 357,866.6641 L492.7212,866.6641 A0,0 0 0 0 492.7212,866.6641 L492.7212,791 L482.7212,781 L440.21,781 L455.42,708.26 L432.21,781 L357,781 A0,0 0 0 0 357,781 " fill="#FEFFDD" style="stroke:#181818;stroke-width:0.5;"/><path d="M482.7212,781 L482.7212,791 L492.7212,791 L482.7212,781 " fill="#FEFFDD" style="stroke:#181818;stroke-width:0.5;"/><text fill="#000000" font-family="sans-serif" font-size="13" font-weight="bold" lengthAdjust="spacing" textLength="43.126" x="363" y="798.0669">wolny</text><text fill="#000000" font-family="sans-serif" font-size="13" lengthAdjust="spacing" textLength="67.4629" x="410.2583" y="798.0669">dla gracza</text><text fill="#000000" font-family="sans-serif" font-size="13" lengthAdjust="spacing" textLength="112.7344" x="363" y="813.1997">gdy brak wrogich</text><text fill="#000000" font-family="sans-serif" font-size="13" lengthAdjust="spacing" textLength="76.0195" x="363" y="828.3325">armii i osad</text><text fill="#000000" font-family="sans-serif" font-size="13" lengthAdjust="spacing" textLength="100.439" x="363" y="843.4653">(poza oblegan&#261;</text><text fill="#000000" font-family="sans-serif" font-size="13" lengthAdjust="spacing" textLength="60.7979" x="363" y="858.5981">twierdz&#261;)</text></g><!--entity wioska--><g id="elem_wioska"><rect fill="#F1F1F1" height="36.2969" rx="2.5" ry="2.5" style="stroke:#181818;stroke-width:0.5;" width="67.8857" x="698" y="806"/><text fill="#000000" font-family="sans-serif" font-size="14" lengthAdjust="spacing" textLength="47.8857" x="708" y="828.9951">wioska</text></g><!--entity miasto--><g id="elem_miasto"><rect fill="#F1F1F1" height="36.2969" rx="2.5" ry="2.5" style="stroke:#181818;stroke-width:0.5;" width="67.4551" x="801.5" y="806"/><text fill="#000000" font-family="sans-serif" font-size="14" lengthAdjust="spacing" textLength="47.4551" x="811.5" y="828.9951">miasto</text></g><!--entity twierdza--><g id="elem_twierdza"><rect fill="#F1F1F1" height="36.2969" rx="2.5" ry="2.5" style="stroke:#181818;stroke-width:0.5;" width="80.0127" x="698" y="930"/><text fill="#000000" font-family="sans-serif" font-size="14" lengthAdjust="spacing" textLength="60.0127" x="708" y="952.9951">twierdza</text></g><!--entity druzyna--><g id="elem_druzyna"><rect fill="#F1F1F1" height="52.5938" rx="2.5" ry="2.5" style="stroke:#181818;stroke-width:0.5;" width="95.5371" x="412" y="532.5"/><text fill="#000000" font-family="sans-serif" font-size="14" lengthAdjust="spacing" textLength="58.4951" x="422" y="555.4951">Dru&#380;yna</text><text fill="#000000" font-family="sans-serif" font-size="14" lengthAdjust="spacing" textLength="75.5371" x="422" y="571.792">Pier&#347;cienia</text></g><!--entity armia--><g id="elem_armia"><rect fill="#F1F1F1" height="36.2969" rx="2.5" ry="2.5" style="stroke:#181818;stroke-width:0.5;" width="60.4414" x="736" y="541"/><text fill="#000000" font-family="sans-serif" font-size="14" lengthAdjust="spacing" textLength="40.4414" x="746" y="563.9951">armia</text></g><!--entity fortyfikacja--><g id="elem_fortyfikacja"><rect fill="#F1F1F1" height="36.2969" rx="2.5" ry="2.5" style="stroke:#181818;stroke-width:0.5;" width="98.6953" x="528.5" y="806"/><text fill="#000000" font-family="sans-serif" font-size="14" lengthAdjust="spacing" textLength="78.6953" x="538.5" y="828.9951">fortyfikacja</text></g><!--link towarzysze to dowodzcy--><g id="link_towarzysze_dowodzcy"><path d="M289.1,86.5 C251.05,101.85 196.67,126.79 155,158 C91.3,205.71 70.2,219.13 34,290 C31.6875,294.5263 29.6564,299.3127 27.8725,304.2298 C27.761,304.5372 27.6505,304.845 27.5409,305.1533 C27.4861,305.3075 29.4225,299.8017 29.3682,299.9561 " fill="none" id="towarzysze-to-dowodzcy" style="stroke:#8A2BE2;stroke-width:1.0;stroke-dasharray:7.0,7.0;"/><polygon fill="#8A2BE2" points="27.3772,305.6161,34.137,298.4534,29.0364,300.8994,26.5903,295.7988,27.3772,305.6161" style="stroke:#8A2BE2;stroke-width:1.0;"/><text fill="#000000" font-family="sans-serif" font-size="13" lengthAdjust="spacing" textLength="100.439" x="169.9395" y="171.0669">po opuszczeniu</text><text fill="#000000" font-family="sans-serif" font-size="13" lengthAdjust="spacing" textLength="128.3179" x="156" y="186.1997">Dru&#380;yny Pier&#347;cienia</text></g><!--link towarzysze to druzyna--><g id="link_towarzysze_druzyna"><path d="M333.21,86.57 C329.86,122.99 324.32,210.82 340,282 C361.41,379.21 414.4267,479.3743 441.6767,526.9243 " fill="none" id="towarzysze-to-druzyna" style="stroke:#8A2BE2;stroke-width:1.0;stroke-dasharray:7.0,7.0;"/><polygon fill="#8A2BE2" points="444.66,532.13,443.6555,522.3325,442.1739,527.7919,436.7145,526.3103,444.66,532.13" style="stroke:#8A2BE2;stroke-width:1.0;"/><text fill="#000000" font-family="sans-serif" font-size="13" lengthAdjust="spacing" textLength="66.3394" x="361.6775" y="233.0669">s&#261; cz&#281;&#347;ci&#261;</text><text fill="#000000" font-family="sans-serif" font-size="13" lengthAdjust="spacing" textLength="99.9692" x="344.8625" y="248.1997">dru&#380;yny dop&#243;ki</text><text fill="#000000" font-family="sans-serif" font-size="13" lengthAdjust="spacing" textLength="107.6943" x="341" y="263.3325">jej nie opuszcz&#261;;</text><text fill="#000000" font-family="sans-serif" font-size="13" lengthAdjust="spacing" textLength="105.9233" x="341.8855" y="278.4653">jeden przewodzi</text></g><!--link Gollum to druzyna--><g id="link_Gollum_druzyna"><path d="M455.15,86.58 C455.48,122.66 456.26,209.32 457,282 C457.93,374 459.0813,477.2504 459.6413,526.1304 " fill="none" id="Gollum-to-druzyna" style="stroke:#181818;stroke-width:1.0;stroke-dasharray:7.0,7.0;"/><polygon fill="#181818" points="459.71,532.13,463.6066,523.0848,459.6527,527.1303,455.6072,523.1764,459.71,532.13" style="stroke:#181818;stroke-width:1.0;"/><text fill="#000000" font-family="sans-serif" font-size="13" lengthAdjust="spacing" textLength="127.207" x="458" y="240.5669">pod&#261;&#380;a za dru&#380;yna;</text><text fill="#000000" font-family="sans-serif" font-size="13" lengthAdjust="spacing" textLength="98.1538" x="472.5266" y="255.6997">przewodzi, gdy</text><text fill="#000000" font-family="sans-serif" font-size="13" lengthAdjust="spacing" textLength="125.874" x="458.6665" y="270.8325">braknie towarzyszy</text></g><!--link powiernicy to druzyna--><g id="link_powiernicy_druzyna"><path d="M579.89,95.03 C589.66,135.28 604.83,215.72 590,282 C567.97,380.47 509.952,480.1522 480.062,527.3122 " fill="none" id="powiernicy-to-druzyna" style="stroke:#181818;stroke-width:1.0;"/><polygon fill="#181818" points="476.85,532.38,485.0466,526.9196,479.5267,528.1568,478.2894,522.6369,476.85,532.38" style="stroke:#181818;stroke-width:1.0;"/></g><!--link slugi to region--><g id="link_slugi_region"><path d="M683,86.71 C683,107.25 683,142.63 683,173 C683,173 683,173 683,560 C683,646.77 560.8762,675.2374 498.8362,684.3574 " fill="none" id="slugi-to-region" style="stroke:#181818;stroke-width:1.0;"/><polygon fill="#181818" points="492.9,685.23,502.3861,687.8785,497.8468,684.5028,501.2225,679.9636,492.9,685.23" style="stroke:#181818;stroke-width:1.0;"/></g><!--link Nazgule to region--><g id="link_Nazgule_region"><path d="M215.17,401.72 C214.23,439.84 217.07,532.55 262,590 C304.02,643.74 377.1477,669.061 421.6077,680.451 " fill="none" id="Nazgule-to-region" style="stroke:#181818;stroke-width:1.0;"/><polygon fill="#181818" points="427.42,681.94,419.6942,675.8316,422.5764,680.6991,417.7089,683.5813,427.42,681.94" style="stroke:#181818;stroke-width:1.0;"/><text fill="#000000" font-family="sans-serif" font-size="13" lengthAdjust="spacing" textLength="130.9014" x="263" y="548.5669">bez przyjaznej armii</text><text fill="#000000" font-family="sans-serif" font-size="13" lengthAdjust="spacing" textLength="101.334" x="277.7837" y="563.6997">nie wchodz&#261; do</text><text fill="#000000" font-family="sans-serif" font-size="13" lengthAdjust="spacing" textLength="106.9897" x="274.9558" y="578.8325">wrogiej twierdzy</text></g><!--link dowodzcyWolnychLudow to region--><g id="link_dowodzcyWolnychLudow_region"><path d="M96.36,418.02 C98.68,463.06 109.48,542.89 155,590 C229.66,667.27 359.1106,683.9434 421.2506,687.6434 " fill="none" id="dowodzcyWolnychLudow-to-region" style="stroke:#181818;stroke-width:1.0;"/><polygon fill="#181818" points="427.24,688,418.4937,683.4721,422.2488,687.7028,418.0182,691.458,427.24,688" style="stroke:#181818;stroke-width:1.0;"/><text fill="#000000" font-family="sans-serif" font-size="13" lengthAdjust="spacing" textLength="23.0737" x="177.6455" y="541.0669">bez</text><text fill="#000000" font-family="sans-serif" font-size="13" lengthAdjust="spacing" textLength="66.3647" x="156" y="556.1997">przyjaznej</text><text fill="#000000" font-family="sans-serif" font-size="13" lengthAdjust="spacing" textLength="33.1982" x="172.5833" y="571.3325">armii</text><text fill="#000000" font-family="sans-serif" font-size="13" lengthAdjust="spacing" textLength="28.0693" x="175.1477" y="586.4653">gin&#261;</text></g><!--link jednostki to armia--><g id="link_jednostki_armia"><path d="M766,426.0032 C766,426.4679 766,426.935 766,427.4044 C766,428.3432 766,429.2912 766,430.248 C766,432.1614 766,434.1094 766,436.0868 C766,440.0415 766,444.1136 766,448.2613 C766,481.4425 766,513.46 766,534.91 " fill="none" id="jednostki-to-armia" style="stroke:#181818;stroke-width:1.0;"/><polygon fill="#181818" points="766,540.91,770,531.91,766,535.91,762,531.91,766,540.91" style="stroke:#181818;stroke-width:1.0;"/><text fill="#000000" font-family="sans-serif" font-size="13" lengthAdjust="spacing" textLength="57.5098" x="834.1423" y="479.0669">max 10 /</text><text fill="#000000" font-family="sans-serif" font-size="13" lengthAdjust="spacing" textLength="191.7944" x="767" y="494.1997">max 5 (w obl&#281;&#380;onej twierdzy)</text></g><!--link armia to region--><g id="link_armia_region"><path d="M754.14,577.21 C743.77,591.01 727.49,609.84 709,621 C639.17,663.14 548.7361,679.0055 498.8361,685.0755 " fill="none" id="armia-to-region" style="stroke:#181818;stroke-width:1.0;"/><polygon fill="#181818" points="492.88,685.8,502.2972,688.684,497.8434,685.1962,501.3311,680.7425,492.88,685.8" style="stroke:#181818;stroke-width:1.0;"/></g><!--link druzyna to region--><g id="link_druzyna_region"><path d="M460,585.8 C460,611.38 460,643.86 460,665.89 " fill="none" id="druzyna-to-region" style="stroke:#181818;stroke-width:1.0;"/><polygon fill="#181818" points="460,671.89,464,662.89,460,666.89,456,662.89,460,671.89" style="stroke:#181818;stroke-width:1.0;"/></g><!--reverse link region to osada--><g id="link_region_osada"><path d="M498.8195,691.8351 C540.3095,694.2951 605.11,704.59 645,747 C647.88,750.0625 650.3264,753.4978 652.402,757.1707 C653.4398,759.0072 654.3849,760.903 655.2452,762.8414 " fill="none" id="region-backto-osada" style="stroke:#181818;stroke-width:1.0;"/><polygon fill="#181818" points="492.83,691.48,501.5775,696.0057,497.8212,691.7759,502.051,688.0197,492.83,691.48" style="stroke:#181818;stroke-width:1.0;"/></g><!--reverse link region to fortyfikacja--><g id="link_region_fortyfikacja"><path d="M479.429,712.733 C502.039,738.023 539.95,780.44 562.57,805.74 " fill="none" id="region-backto-fortyfikacja" style="stroke:#181818;stroke-width:1.0;"/><polygon fill="#181818" points="475.43,708.26,478.4465,717.6355,478.7625,711.9875,484.4105,712.3035,475.43,708.26" style="stroke:#181818;stroke-width:1.0;"/></g><!--SRC=[RLInZjD04Etz5IFJt4NuW88c80g4H8CG5JHk9jwDRnDdnbhRCbv4WvIFG7n6Ij8b-Q-RTPpO6-XsPdVUUpFpRAkp6YalD9HSrPWP3JyY07jDrzoYTLtbT90kkJNQaiawm0hYCKofbDFfZo2HmJWe-iX5qMo2L5KqkUaXgjClESRHpsYyNMb58cjjRaHPdJS5MWerwSBKVN8AeRXbvGQP4XnsFefl03-Z4qJTF_Bdmzz2XzelED-ue2vx_DH8ed_-uOAPqd2NajmUTctOYxADwmZFDROvxIL8wKimhF4rset1IKneMVMrSXA- -D-962P94TSQ5bpNl05U3lavp6Qj5pURWIeGSekP4_PSTR2mk8RMScwySizhm01Ng5AwAzaXyABGET9ncrBjrwpSSNillKMZD-3XuTquwcVlYqP_DLpeUYvE0IwRocLEUcnI6dhlODfw2EMnXca5KDLn2vax_lPLNeswG2ak3xkrIMcbLq3YuO7nk7tZSqeJbDPfByz4PnTwcf77orJ7xMcF80qFk2Z5rxBd8CDAoK_B4rprTj7aKqYIv0ePdQsTzBbXFT75PvFa71RQUNdT2Xs9_du5ANcMDdjaFsrfCAL-Ht8_xA2B_cl9M-I-XG5wMA_itSWse_7hyZMzu-OGR_0xl7e9BrBofzTmrte3oD3tJ1Fs-pYA-XAOz7VPshJbqQFUKtZZszPmjSOW9PXLpU5Fw4oAmGUrP5jtIxF6R8MUnjF1soGvyqmJmSid]--></g></svg>