<svg xmlns="http://www.w3.org/2000/svg" xmlns:xlink="http://www.w3.org/1999/xlink" contentStyleType="text/css" height="989px" preserveAspectRatio="none" style="width:1530px;height:989px;background:#FFFFFF;" version="1.1" viewBox="0 0 1530 989" width="1530px" zoomAndPan="magnify"><defs/><g><!--cluster postacie--><g id="cluster_postacie"><rect fill="none" height="171" rx="2.5" ry="2.5" style="stroke:#181818;stroke-width:1.0;" width="850" x="335.84" y="44.02"/><text fill="#000000" font-family="sans-serif" font-size="14" font-weight="bold" lengthAdjust="spacing" textLength="66.7051" x="727.4875" y="59.0151">postacie</text></g><!--cluster slugi--><g id="cluster_slugi"><rect fill="none" height="104" rx="2.5" ry="2.5" style="stroke:#181818;stroke-width:1.0;" width="456" x="705.84" y="87.02"/><text fill="#000000" font-family="sans-serif" font-size="14" font-weight="bold" lengthAdjust="spacing" textLength="38.3154" x="914.6823" y="102.0151">s&#322;ugi</text></g><!--cluster jednostki--><g id="cluster_jednostki"><rect fill="none" height="103" rx="2.5" ry="2.5" style="stroke:#181818;stroke-width:1.0;" width="264" x="1234.84" y="87.52"/><text fill="#000000" font-family="sans-serif" font-size="14" font-weight="bold" lengthAdjust="spacing" textLength="73.0352" x="1330.3224" y="102.5151">jednostki</text></g><!--cluster dowodzcy--><g id="cluster_dowodzcy"><rect fill="none" height="120" rx="2.5" ry="2.5" style="stroke:#181818;stroke-width:1.0;" width="235" x="76.84" y="79.02"/><text fill="#000000" font-family="sans-serif" font-size="14" font-weight="bold" lengthAdjust="spacing" textLength="77.7861" x="155.4469" y="94.0151">dow&#243;dzcy</text></g><!--cluster narod--><g id="cluster_narod"><rect fill="none" height="234" rx="2.5" ry="2.5" style="stroke:#181818;stroke-width:1.0;" width="168" x="485.84" y="508.02"/><text fill="#000000" font-family="sans-serif" font-size="14" font-weight="bold" lengthAdjust="spacing" textLength="45.958" x="546.861" y="523.0151">nar&#243;d</text></g><!--cluster osada--><g id="cluster_osada"><rect fill="none" height="200" rx="2.5" ry="2.5" style="stroke:#181818;stroke-width:1.0;" width="238" x="770.84" y="783.02"/><text fill="#000000" font-family="sans-serif" font-size="14" font-weight="bold" lengthAdjust="spacing" textLength="46.8672" x="866.4064" y="798.0151">osada</text></g><!--entity towarzysze--><g id="elem_towarzysze"><rect fill="#F1F1F1" height="36.2969" rx="2.5" ry="2.5" style="stroke:#181818;stroke-width:0.5;" width="98.7295" x="588.34" y="130.52"/><text fill="#000000" font-family="sans-serif" font-size="14" lengthAdjust="spacing" textLength="78.7295" x="598.34" y="153.5151">towarzysze</text></g><!--entity powiernicy--><g id="elem_powiernicy"><rect fill="#F1F1F1" height="52.5938" rx="2.5" ry="2.5" style="stroke:#181818;stroke-width:0.5;" width="95.9814" x="456.84" y="122.02"/><text fill="#000000" font-family="sans-serif" font-size="14" lengthAdjust="spacing" textLength="75.9063" x="466.84" y="145.0151">powiernicy</text><text fill="#000000" font-family="sans-serif" font-size="14" lengthAdjust="spacing" textLength="75.9814" x="466.84" y="161.312">pier&#347;cienia</text></g><!--entity Gollum--><g id="elem_Gollum"><rect fill="#F1F1F1" height="36.2969" rx="2.5" ry="2.5" style="stroke:#181818;stroke-width:0.5;" width="69.7041" x="351.84" y="130.52"/><text fill="#000000" font-family="sans-serif" font-size="14" lengthAdjust="spacing" textLength="49.7041" x="361.84" y="153.5151">Gollum</text></g><!--entity Saruman--><g id="elem_Saruman"><rect fill="#F1F1F1" height="36.2969" rx="2.5" ry="2.5" style="stroke:#181818;stroke-width:0.5;" width="83.1846" x="722.34" y="130.52"/><text fill="#000000" font-family="sans-serif" font-size="14" lengthAdjust="spacing" textLength="63.1846" x="732.34" y="153.5151">Saruman</text></g><!--entity rzecznikSaurona--><g id="elem_rzecznikSaurona"><rect fill="#F1F1F1" height="36.2969" rx="2.5" ry="2.5" style="stroke:#181818;stroke-width:0.5;" width="144.168" x="840.84" y="130.52"/><text fill="#000000" font-family="sans-serif" font-size="14" lengthAdjust="spacing" textLength="124.168" x="850.84" y="153.5151">Rzecznik Saurona</text></g><!--entity czarnoksieznik--><g id="elem_czarnoksieznik"><rect fill="#F1F1F1" height="52.5938" rx="2.5" ry="2.5" style="stroke:#181818;stroke-width:0.5;" width="125.0205" x="1020.34" y="122.02"/><text fill="#000000" font-family="sans-serif" font-size="14" lengthAdjust="spacing" textLength="105.0205" x="1030.34" y="145.0151">Czarnoksi&#281;&#380;nik</text><text fill="#000000" font-family="sans-serif" font-size="14" lengthAdjust="spacing" textLength="75.9814" x="1030.34" y="161.312">z Angmaru</text></g><!--entity regularne--><g id="elem_regularne"><rect fill="#F1F1F1" height="36.2969" rx="2.5" ry="2.5" style="stroke:#181818;stroke-width:0.5;" width="87.8398" x="1386.84" y="130.52"/><text fill="#000000" font-family="sans-serif" font-size="14" lengthAdjust="spacing" textLength="67.8398" x="1396.84" y="153.5151">regularne</text></g><!--entity elitarne--><g id="elem_elitarne"><rect fill="#F1F1F1" height="36.2969" rx="2.5" ry="2.5" style="stroke:#181818;stroke-width:0.5;" width="73.7031" x="1277.84" y="130.52"/><text fill="#000000" font-family="sans-serif" font-size="14" lengthAdjust="spacing" textLength="53.7031" x="1287.84" y="153.5151">elitarne</text></g><!--entity Nazgule--><g id="elem_Nazgule"><rect fill="#F1F1F1" height="36.2969" rx="2.5" ry="2.5" style="stroke:#181818;stroke-width:0.5;" width="76.6631" x="93.34" y="130.52"/><text fill="#000000" font-family="sans-serif" font-size="14" lengthAdjust="spacing" textLength="56.6631" x="103.34" y="153.5151">Nazg&#251;le</text></g><!--entity dowodzcyWolnychLudow--><g id="elem_dowodzcyWolnychLudow"><rect fill="#F1F1F1" height="68.8906" rx="2.5" ry="2.5" style="stroke:#181818;stroke-width:0.5;" width="89.6855" x="205.84" y="114.02"/><text fill="#000000" font-family="sans-serif" font-size="14" lengthAdjust="spacing" textLength="69.6855" x="215.84" y="137.0151">dow&#243;dzcy</text><text fill="#000000" font-family="sans-serif" font-size="14" lengthAdjust="spacing" textLength="60.0264" x="215.84" y="153.312">Wolnych</text><text fill="#000000" font-family="sans-serif" font-size="14" lengthAdjust="spacing" textLength="45.5752" x="215.84" y="169.6089">Lud&#243;w</text></g><!--entity region--><g id="elem_region"><rect fill="#F1F1F1" height="36.2969" rx="2.5" ry="2.5" style="stroke:#181818;stroke-width:0.5;" width="64.584" x="572.34" y="543.02"/><text fill="#000000" font-family="sans-serif" font-size="14" lengthAdjust="spacing" textLength="44.584" x="582.34" y="566.0151">region</text></g><g id="elem_GMN23"><path d="M501.84,640.02 L501.84,725.6841 A0,0 0 0 0 501.84,725.6841 L637.5612,725.6841 A0,0 0 0 0 637.5612,725.6841 L637.5612,650.02 L627.5612,640.02 L586.09,640.02 L599.82,579.21 L578.09,640.02 L501.84,640.02 A0,0 0 0 0 501.84,640.02 " fill="#FEFFDD" style="stroke:#181818;stroke-width:0.5;"/><path d="M627.5612,640.02 L627.5612,650.02 L637.5612,650.02 L627.5612,640.02 " fill="#FEFFDD" style="stroke:#181818;stroke-width:0.5;"/><text fill="#000000" font-family="sans-serif" font-size="13" font-weight="bold" lengthAdjust="spacing" textLength="43.126" x="507.84" y="657.0869">wolny</text><text fill="#000000" font-family="sans-serif" font-size="13" lengthAdjust="spacing" textLength="67.4629" x="555.0983" y="657.0869">dla gracza</text><text fill="#000000" font-family="sans-serif" font-size="13" lengthAdjust="spacing" textLength="112.7344" x="507.84" y="672.2197">gdy brak wrogich</text><text fill="#000000" font-family="sans-serif" font-size="13" lengthAdjust="spacing" textLength="76.0195" x="507.84" y="687.3525">armii i osad</text><text fill="#000000" font-family="sans-serif" font-size="13" lengthAdjust="spacing" textLength="100.439" x="507.84" y="702.4853">(poza oblegan&#261;</text><text fill="#000000" font-family="sans-serif" font-size="13" lengthAdjust="spacing" textLength="60.7979" x="507.84" y="717.6181">twierdz&#261;)</text></g><!--entity wioska--><g id="elem_wioska"><rect fill="#F1F1F1" height="36.2969" rx="2.5" ry="2.5" style="stroke:#181818;stroke-width:0.5;" width="67.8857" x="813.84" y="826.02"/><text fill="#000000" font-family="sans-serif" font-size="14" lengthAdjust="spacing" textLength="47.8857" x="823.84" y="849.0151">wioska</text></g><!--entity miasto--><g id="elem_miasto"><rect fill="#F1F1F1" height="36.2969" rx="2.5" ry="2.5" style="stroke:#181818;stroke-width:0.5;" width="67.4551" x="917.34" y="826.02"/><text fill="#000000" font-family="sans-serif" font-size="14" lengthAdjust="spacing" textLength="47.4551" x="927.34" y="849.0151">miasto</text></g><!--entity twierdza--><g id="elem_twierdza"><rect fill="#F1F1F1" height="36.2969" rx="2.5" ry="2.5" style="stroke:#181818;stroke-width:0.5;" width="80.0127" x="813.84" y="923.02"/><text fill="#000000" font-family="sans-serif" font-size="14" lengthAdjust="spacing" textLength="60.0127" x="823.84" y="946.0151">twierdza</text></g><!--entity druzyna--><g id="elem_druzyna"><rect fill="#F1F1F1" height="52.5938" rx="2.5" ry="2.5" style="stroke:#181818;stroke-width:0.5;" width="95.5371" x="438.84" y="365.52"/><text fill="#000000" font-family="sans-serif" font-size="14" lengthAdjust="spacing" textLength="58.4951" x="448.84" y="388.5151">Dru&#380;yna</text><text fill="#000000" font-family="sans-serif" font-size="14" lengthAdjust="spacing" textLength="75.5371" x="448.84" y="404.812">Pier&#347;cienia</text></g><!--entity armia--><g id="elem_armia"><rect fill="#F1F1F1" height="36.2969" rx="2.5" ry="2.5" style="stroke:#181818;stroke-width:0.5;" width="60.4414" x="1212.84" y="374.02"/><text fill="#000000" font-family="sans-serif" font-size="14" lengthAdjust="spacing" textLength="40.4414" x="1222.84" y="397.0151">armia</text></g><g id="elem_GMN18"><path d="M1308.34,364.52 L1308.34,388.02 L1272.91,392.02 L1308.34,396.02 L1308.34,419.9184 A0,0 0 0 0 1308.34,419.9184 L1523.2228,419.9184 A0,0 0 0 0 1523.2228,419.9184 L1523.2228,374.52 L1513.2228,364.52 L1308.34,364.52 A0,0 0 0 0 1308.34,364.52 " fill="#FEFFDD" style="stroke:#181818;stroke-width:0.5;"/><path d="M1513.2228,364.52 L1513.2228,374.52 L1523.2228,374.52 L1513.2228,364.52 " fill="#FEFFDD" style="stroke:#181818;stroke-width:0.5;"/><text fill="#000000" font-family="sans-serif" font-size="13" lengthAdjust="spacing" textLength="193.8828" x="1314.34" y="381.5869">przyja&#378;ni dow&#243;dzcy i postacie</text><text fill="#000000" font-family="sans-serif" font-size="13" lengthAdjust="spacing" textLength="162.5571" x="1314.34" y="396.7197">w regionie z jednostkami</text><text fill="#000000" font-family="sans-serif" font-size="13" lengthAdjust="spacing" textLength="147.4561" x="1314.34" y="411.8525">wchodz&#261; w sk&#322;ad armii</text></g><!--entity fortyfikacja--><g id="elem_fortyfikacja"><rect fill="#F1F1F1" height="36.2969" rx="2.5" ry="2.5" style="stroke:#181818;stroke-width:0.5;" width="98.6953" x="641.34" y="826.02"/><text fill="#000000" font-family="sans-serif" font-size="14" lengthAdjust="spacing" textLength="78.6953" x="651.34" y="849.0151">fortyfikacja</text></g><!--link czarnoksieznik to Nazgule--><g id="link_czarnoksieznik_Nazgule"><path d="M1072.88,122 C1059.02,89.79 1030.42,37.7 985.34,21.02 C944.75,6 246.93,6 206.34,21.02 C160.89,37.83 143.224,93.449 136.424,124.489 " fill="none" id="czarnoksieznik-to-Nazgule" style="stroke:#181818;stroke-width:1.0;"/><polygon fill="#181818" points="135.14,130.35,140.9733,122.4145,136.21,125.4658,133.1586,120.7025,135.14,130.35" style="stroke:#181818;stroke-width:1.0;"/></g><!--link towarzysze to region--><g id="link_towarzysze_region"><path d="M642.45,166.53 C646.64,182.91 652.51,208.45 654.84,231.02 C657.67,258.43 663.69,266.92 654.84,293.02 C649.44,308.93 638.13,307.44 631.84,323.02 C600.6,400.4 601.5215,496.8069 603.4515,536.8969 " fill="none" id="towarzysze-to-region" style="stroke:#181818;stroke-width:1.0;stroke-dasharray:7.0,7.0;"/><polygon fill="#181818" points="603.74,542.89,607.3026,533.7081,603.4996,537.8958,599.3119,534.0928,603.74,542.89" style="stroke:#181818;stroke-width:1.0;"/><text fill="#000000" font-family="sans-serif" font-size="13" lengthAdjust="spacing" textLength="16.2056" x="672.0685" y="336.0869">po</text><text fill="#8A2BE2" font-family="sans-serif" font-size="13" lengthAdjust="spacing" textLength="80.1011" x="692.4064" y="336.0869">opuszczeniu</text><text fill="#000000" font-family="sans-serif" font-size="13" lengthAdjust="spacing" textLength="132.6978" x="655.9391" y="351.2197">Dru&#380;yny Pier&#347;cienia;</text><text fill="#000000" font-family="sans-serif" font-size="13" lengthAdjust="spacing" textLength="131.2188" x="656.6786" y="366.3525">* mo&#380;e porusza&#263; si&#281;</text><text fill="#000000" font-family="sans-serif" font-size="13" lengthAdjust="spacing" textLength="162.3794" x="641.0983" y="381.4853">samodzielnie lub z armi&#261;</text><text fill="#000000" font-family="sans-serif" font-size="13" lengthAdjust="spacing" textLength="6.5" x="646.8588" y="396.6181">*</text><text fill="#FF8C00" font-family="sans-serif" font-size="13" lengthAdjust="spacing" textLength="140.2261" x="657.4911" y="396.6181">musi si&#281;&#160;zatrzyma&#263; w</text><text fill="#FF8C00" font-family="sans-serif" font-size="13" lengthAdjust="spacing" textLength="168.4604" x="638.0578" y="411.751">regionie z twierdz&#261; Cienia</text><text fill="#000000" font-family="sans-serif" font-size="13" lengthAdjust="spacing" textLength="6.5" x="632.84" y="426.8838">*</text><text fill="#CD5C5C" font-family="sans-serif" font-size="13" lengthAdjust="spacing" textLength="168.2637" x="643.4723" y="426.8838">nie mo&#380;e przyby&#263;/opu&#347;ci&#263;</text><text fill="#CD5C5C" font-family="sans-serif" font-size="13" lengthAdjust="spacing" textLength="127.4482" x="658.5639" y="442.0166">regionu z przyjazn&#261;</text><text fill="#CD5C5C" font-family="sans-serif" font-size="13" lengthAdjust="spacing" textLength="118.6567" x="662.9596" y="457.1494">obl&#281;&#380;on&#261; twierdz&#261;</text></g><!--link towarzysze to druzyna--><g id="link_towarzysze_druzyna"><path d="M626.57,166.68 C614.67,183.47 594.38,208.57 570.84,223.02 C559.44,230.01 551.58,221.86 541.84,231.02 C522.04,249.63 503.5088,319.0606 493.9888,359.3806 " fill="none" id="towarzysze-to-druzyna" style="stroke:#181818;stroke-width:1.0;stroke-dasharray:7.0,7.0;"/><polygon fill="#181818" points="492.61,365.22,498.5711,357.38,493.759,360.3538,490.7852,355.5417,492.61,365.22" style="stroke:#181818;stroke-width:1.0;"/><text fill="#000000" font-family="sans-serif" font-size="13" lengthAdjust="spacing" textLength="66.3394" x="563.5175" y="244.0869">s&#261; cz&#281;&#347;ci&#261;</text><text fill="#000000" font-family="sans-serif" font-size="13" lengthAdjust="spacing" textLength="99.9692" x="546.7025" y="259.2197">dru&#380;yny dop&#243;ki</text><text fill="#000000" font-family="sans-serif" font-size="13" lengthAdjust="spacing" textLength="39.2031" x="542.84" y="274.3525">jej nie</text><text fill="#8A2BE2" font-family="sans-serif" font-size="13" lengthAdjust="spacing" textLength="64.3589" x="586.1754" y="274.3525">opuszcz&#261;;</text><text fill="#000000" font-family="sans-serif" font-size="13" lengthAdjust="spacing" textLength="105.9233" x="543.7255" y="289.4853">jeden przewodzi</text></g><!--link Gollum to druzyna--><g id="link_Gollum_druzyna"><path d="M376.35,166.79 C360.85,194.7 335.83,250.88 356.84,293.02 C373.86,327.17 403.834,349.638 433.324,366.008 " fill="none" id="Gollum-to-druzyna" style="stroke:#181818;stroke-width:1.0;stroke-dasharray:7.0,7.0;"/><polygon fill="#181818" points="438.57,368.92,432.6424,361.0546,434.1984,366.4933,428.7597,368.0492,438.57,368.92" style="stroke:#181818;stroke-width:1.0;"/><text fill="#000000" font-family="sans-serif" font-size="13" lengthAdjust="spacing" textLength="127.207" x="357.84" y="251.5869">pod&#261;&#380;a za dru&#380;yna;</text><text fill="#000000" font-family="sans-serif" font-size="13" lengthAdjust="spacing" textLength="98.1538" x="372.3666" y="266.7197">przewodzi, gdy</text><text fill="#8A2BE2" font-family="sans-serif" font-size="13" lengthAdjust="spacing" textLength="125.874" x="358.5065" y="281.8525">braknie towarzyszy</text></g><!--link powiernicy to druzyna--><g id="link_powiernicy_druzyna"><path d="M502.91,175.36 C499.45,221.85 492.6567,313.0266 489.1967,359.3766 " fill="none" id="powiernicy-to-druzyna" style="stroke:#181818;stroke-width:1.0;"/><polygon fill="#181818" points="488.75,365.36,493.4089,356.6827,489.1222,360.3739,485.4311,356.0872,488.75,365.36" style="stroke:#181818;stroke-width:1.0;"/></g><!--link rzecznikSaurona to region--><g id="link_rzecznikSaurona_region"><path d="M918.88,166.84 C935.47,217.77 976.14,369.2 908.84,461.02 C844.85,548.32 707.9597,559.9995 643.4897,560.6495 " fill="none" id="rzecznikSaurona-to-region" style="stroke:#181818;stroke-width:1.0;"/><polygon fill="#181818" points="637.49,560.71,646.5299,564.6191,642.4897,560.6596,646.4492,556.6195,637.49,560.71" style="stroke:#181818;stroke-width:1.0;"/><text fill="#000000" font-family="sans-serif" font-size="13" lengthAdjust="spacing" textLength="4.1323" x="1039.7379" y="336.0869">&#160;</text><text fill="#000000" font-family="sans-serif" font-size="13" lengthAdjust="spacing" textLength="131.2188" x="976.1947" y="351.2197">* mo&#380;e porusza&#263; si&#281;</text><text fill="#000000" font-family="sans-serif" font-size="13" lengthAdjust="spacing" textLength="162.3794" x="960.6144" y="366.3525">samodzielnie lub z armi&#261;</text><text fill="#000000" font-family="sans-serif" font-size="13" lengthAdjust="spacing" textLength="6.5" x="946.84" y="381.4853">*</text><text fill="#FF0000" font-family="sans-serif" font-size="13" lengthAdjust="spacing" textLength="179.2959" x="957.4723" y="381.4853">bez armii nie mo&#380;e przyby&#263;</text><text fill="#FF0000" font-family="sans-serif" font-size="13" lengthAdjust="spacing" textLength="125.2139" x="979.1972" y="396.6181">do regionu z wrog&#261;</text><text fill="#FF0000" font-family="sans-serif" font-size="13" lengthAdjust="spacing" textLength="138.5059" x="972.5512" y="411.751">nieobl&#281;&#380;on&#261; twierdz&#261;</text><text fill="#000000" font-family="sans-serif" font-size="13" lengthAdjust="spacing" textLength="6.5" x="952.3561" y="426.8838">*</text><text fill="#CD5C5C" font-family="sans-serif" font-size="13" lengthAdjust="spacing" textLength="168.2637" x="962.9884" y="426.8838">nie mo&#380;e przyby&#263;/opu&#347;ci&#263;</text><text fill="#CD5C5C" font-family="sans-serif" font-size="13" lengthAdjust="spacing" textLength="127.4482" x="978.08" y="442.0166">regionu z przyjazn&#261;</text><text fill="#CD5C5C" font-family="sans-serif" font-size="13" lengthAdjust="spacing" textLength="118.6567" x="982.4757" y="457.1494">obl&#281;&#380;on&#261; twierdz&#261;</text></g><!--link Saruman to region--><g id="link_Saruman_region"><path d="M774.25,166.67 C803.04,216.48 877.59,363.84 815.84,461.02 C776.34,523.18 692.2691,545.9494 643.5491,554.5294 " fill="none" id="Saruman-to-region" style="stroke:#181818;stroke-width:1.0;"/><polygon fill="#181818" points="637.64,555.57,647.1974,557.9484,642.5642,554.7028,645.8098,550.0697,637.64,555.57" style="stroke:#181818;stroke-width:1.0;"/><text fill="#000000" font-family="sans-serif" font-size="13" lengthAdjust="spacing" textLength="59.4204" x="840.5732" y="381.5869">nie mo&#380;e</text><text fill="#000000" font-family="sans-serif" font-size="13" lengthAdjust="spacing" textLength="49.1245" x="845.7211" y="396.7197">opu&#347;ci&#263;</text><text fill="#000000" font-family="sans-serif" font-size="13" lengthAdjust="spacing" textLength="60.8867" x="839.84" y="411.8525">Orthanku</text></g><!--link Nazgule to region--><g id="link_Nazgule_region"><path d="M120.74,166.76 C89.21,218.1 6,371.96 79.84,461.02 C143.18,537.42 461.4939,555.0524 566.2039,558.8524 " fill="none" id="Nazgule-to-region" style="stroke:#181818;stroke-width:1.0;"/><polygon fill="#181818" points="572.2,559.07,563.351,554.7462,567.2033,558.8887,563.0609,562.741,572.2,559.07" style="stroke:#181818;stroke-width:1.0;"/><text fill="#000000" font-family="sans-serif" font-size="13" lengthAdjust="spacing" textLength="4.1323" x="173.7379" y="359.0869">&#160;</text><text fill="#000000" font-family="sans-serif" font-size="13" lengthAdjust="spacing" textLength="131.2188" x="110.1947" y="374.2197">* mo&#380;e porusza&#263; si&#281;</text><text fill="#000000" font-family="sans-serif" font-size="13" lengthAdjust="spacing" textLength="162.3794" x="94.6144" y="389.3525">samodzielnie lub z armi&#261;</text><text fill="#000000" font-family="sans-serif" font-size="13" lengthAdjust="spacing" textLength="6.5" x="80.84" y="404.4853">*</text><text fill="#FF0000" font-family="sans-serif" font-size="13" lengthAdjust="spacing" textLength="179.2959" x="91.4723" y="404.4853">bez armii nie mo&#380;e przyby&#263;</text><text fill="#FF0000" font-family="sans-serif" font-size="13" lengthAdjust="spacing" textLength="125.2139" x="113.1972" y="419.6181">do regionu z wrog&#261;</text><text fill="#FF0000" font-family="sans-serif" font-size="13" lengthAdjust="spacing" textLength="138.5059" x="106.5512" y="434.751">nieobl&#281;&#380;on&#261; twierdz&#261;</text></g><!--link dowodzcyWolnychLudow to region--><g id="link_dowodzcyWolnychLudow_region"><path d="M252.85,183.29 C258.34,246.06 278.72,381.54 353.84,461.02 C413.69,524.34 513.1393,547.0008 566.2993,555.1508 " fill="none" id="dowodzcyWolnychLudow-to-region" style="stroke:#181818;stroke-width:1.0;"/><polygon fill="#181818" points="572.23,556.06,563.9401,550.7423,567.2877,555.3023,562.7278,558.6499,572.23,556.06" style="stroke:#181818;stroke-width:1.0;"/><text fill="#000000" font-family="sans-serif" font-size="13" lengthAdjust="spacing" textLength="23.0737" x="376.4855" y="374.0869">bez</text><text fill="#000000" font-family="sans-serif" font-size="13" lengthAdjust="spacing" textLength="66.3647" x="354.84" y="389.2197">przyjaznej</text><text fill="#000000" font-family="sans-serif" font-size="13" lengthAdjust="spacing" textLength="33.1982" x="371.4233" y="404.3525">armii</text><text fill="#000000" font-family="sans-serif" font-size="13" lengthAdjust="spacing" textLength="31.7129" x="372.1659" y="419.4853">ginie</text></g><!--link jednostki to armia--><g id="link_jednostki_armia"><path d="M1242.84,191.0598 C1242.84,191.3637 1242.84,191.6688 1242.84,191.9751 C1242.84,196.8754 1242.84,202.0781 1242.84,207.516 C1242.84,218.3916 1242.84,230.2078 1242.84,242.4262 C1242.84,291.3 1242.84,340.61 1242.84,367.91 " fill="none" id="jednostki-to-armia" style="stroke:#181818;stroke-width:1.0;"/><polygon fill="#181818" points="1242.84,373.91,1246.84,364.91,1242.84,368.91,1238.84,364.91,1242.84,373.91" style="stroke:#181818;stroke-width:1.0;"/><text fill="#000000" font-family="sans-serif" font-size="13" lengthAdjust="spacing" textLength="57.5098" x="1310.9823" y="259.0869">max 10 /</text><text fill="#000000" font-family="sans-serif" font-size="13" lengthAdjust="spacing" textLength="191.7944" x="1243.84" y="274.2197">max 5 (w obl&#281;&#380;onej twierdzy)</text></g><!--link armia to region--><g id="link_armia_region"><path d="M1233.25,410.22 C1223.46,426.06 1206.76,448.89 1185.84,461.02 C1090.67,516.17 751.5296,548.0255 643.4296,556.9655 " fill="none" id="armia-to-region" style="stroke:#181818;stroke-width:1.0;"/><polygon fill="#181818" points="637.45,557.46,646.7491,560.7046,642.433,557.0479,646.0897,552.7318,637.45,557.46" style="stroke:#181818;stroke-width:1.0;"/></g><!--link druzyna to region--><g id="link_druzyna_region"><path d="M505.02,418.75 C529.33,453.15 568.2965,508.3106 589.1365,537.7906 " fill="none" id="druzyna-to-region" style="stroke:#181818;stroke-width:1.0;"/><polygon fill="#181818" points="592.6,542.69,590.671,533.0319,589.7138,538.6072,584.1385,537.6499,592.6,542.69" style="stroke:#181818;stroke-width:1.0;"/></g><!--reverse link region to osada--><g id="link_region_osada"><path d="M635.7617,582.5984 C655.6617,596.8184 677.64,615.21 694.84,640.02 C730.74,691.8 735.35,708.16 757.84,767.02 C760.87,774.9475 763.6638,783.4931 766.158,791.8923 C767.4051,796.092 768.5773,800.255 769.6667,804.2858 C769.9391,805.2935 770.2063,806.293 770.4682,807.2827 C770.5336,807.5301 770.5988,807.7769 770.6636,808.0231 C770.696,808.1462 770.7283,808.2691 770.7605,808.3919 " fill="none" id="region-backto-osada" style="stroke:#181818;stroke-width:1.0;"/><polygon fill="#181818" points="630.88,579.11,635.877,587.597,634.9481,582.017,640.5282,581.088,630.88,579.11" style="stroke:#181818;stroke-width:1.0;"/><text fill="#000000" font-family="sans-serif" font-size="13" lengthAdjust="spacing" textLength="135.5225" x="765.5732" y="665.0869">umo&#380;liwia rekrutacj&#281;</text><text fill="#000000" font-family="sans-serif" font-size="13" lengthAdjust="spacing" textLength="162.9888" x="751.84" y="680.2197">(poza obl&#281;&#380;on&#261; twierdz&#261;,</text><text fill="#000000" font-family="sans-serif" font-size="13" lengthAdjust="spacing" textLength="142.1431" x="762.2629" y="695.3525">chyba &#380;e rekrutujemy</text><text fill="#000000" font-family="sans-serif" font-size="13" lengthAdjust="spacing" textLength="117.6348" x="774.517" y="710.4853">kart&#261; wydarzenia)</text></g><!--reverse link region to fortyfikacja--><g id="link_region_fortyfikacja"><path d="M622.7058,583.8844 C634.4458,598.9644 646.89,617.29 655.84,640.02 C681.57,705.41 688.42,790.02 690.22,825.82 " fill="none" id="region-backto-fortyfikacja" style="stroke:#181818;stroke-width:1.0;"/><polygon fill="#181818" points="619.02,579.15,621.3924,588.7088,622.0915,583.0954,627.705,583.7944,619.02,579.15" style="stroke:#181818;stroke-width:1.0;"/></g><!--SRC=[tLQnZjn63Etr5OGgty9tJeeqPtk1n0Q2044Ss43IgE5ASzfPIHnX946H0ZS63lSDGPhymtN9LRdT_p8vAsarMXjfKWJfHfmXt-CZPoYhuXefpHMKfgenrWf-3G3iPAvDYxRlgbvvvjAqMbdISGTOGNZwZAZarU5tZaGQGy_fMvFdJU6Pghn9jGjH7JxmCdJmynFlq3O5qi9gUnNtfBDts5X3w2Ay7Mmm6CE5JzoZ9PDLMhbJul9gDEr_EpomCQ8UlgQqO4pnVX-y3qx-EvKGYvJfXKHMfKtESNo5LAvhPvo7I4nhaduGZJyUx-KhN0Jy0NkEgDmXMJ_-bIjVoJ7EpoQdBjv-tx31ZndHi1SHxpxUjw5Fn3PzD-ZssZQ71_w8w4UlTAVJQ0kD0PcQazNfjWPpSxHTGydDiSF3dwHXmWOzTLD4hUYZ3N5dzPE4M6ZUYRUSnFuMMgYommTCN4mzmoMq9d4SUSMnmtFbEJAR7BMDgMjJ2BUZ_HfMgrP4MAqWoH5IYzm24QL91nkB6RJMf5eKShZCsbIOHFIaD3s2sUGgHThVHbHBSmlJ2zOmMBJHvNgiLn2SBWjSNLsj9nwbWHStXcg8JMxio_2Rl54_QPEhEboRigdwk6V9cuY6KdGmhyJpY5PGcCE3N3lBft5_1zAo4LLOi8HQvI9ltcnOOib5IAzyoDTeipUMPLFXkcWgxGBy_KUFDHCk968RqMSzPYMSn81NZjqPqdUKQAItAWdNuZ4GPvHDjxzxnkbANlkx1ThCwmZMCDQnkNfNXC-TvZh9vJLywCJDhyHwRFThgFXKtBE3SE2eoIXuOih7-uoxSgTs8Bp_gM3xs-ToE54aD9NSHnqSNpWViZJ9_lRmWC1DDS19IIUdfy0DkSXlZYUjAeIcbBfWzlfUNavGmV9Hl9JDiGV_ZIPoWc_KSL_3UNaNQRZpYO5JHUNAdLLpx9LFblA_sL_3LF8bdkX4DAFnnjPRfAm9Wl5T_r_K9VZa3F9IOqQkpvt6QZUyi_m0QmuQdCQf-0pZ92pm5_Zo2tWMaQo-WYSjJF1yCmVuxY8C0kS29y1W76epqsoOoEEEYm7IQbDbw9auPbKR_n_e28hU1BqnjkvkT8Rn3WL6uE05vty4keP6If3hbZbQbTc6v-5EoZgDbtDDdqOKRxiDWjJkwDJiLC6lGuQsbadP9Vm6oBDxuK5wP3u2]--></g></svg>