<svg xmlns="http://www.w3.org/2000/svg" xmlns:xlink="http://www.w3.org/1999/xlink" contentStyleType="text/css" height="840px" preserveAspectRatio="none" style="width:1033px;height:840px;background:#FFFFFF;" version="1.1" viewBox="0 0 1033 840" width="1033px" zoomAndPan="magnify"><defs/><g><!--cluster postacie--><g id="cluster_postacie"><rect fill="none" height="104" rx="2.5" ry="2.5" style="stroke:#181818;stroke-width:1.0;" width="457" x="7" y="15"/><text fill="#000000" font-family="sans-serif" font-size="14" font-weight="bold" lengthAdjust="spacing" textLength="66.7051" x="202.1475" y="29.9951">postacie</text></g><!--cluster jednostki--><g id="cluster_jednostki"><rect fill="none" height="103" rx="2.5" ry="2.5" style="stroke:#181818;stroke-width:1.0;" width="264" x="496" y="15.5"/><text fill="#000000" font-family="sans-serif" font-size="14" font-weight="bold" lengthAdjust="spacing" textLength="73.0352" x="591.4824" y="30.4951">jednostki</text></g><!--cluster dowodzcy--><g id="cluster_dowodzcy"><rect fill="none" height="120" rx="2.5" ry="2.5" style="stroke:#181818;stroke-width:1.0;" width="235" x="792" y="7"/><text fill="#000000" font-family="sans-serif" font-size="14" font-weight="bold" lengthAdjust="spacing" textLength="77.7861" x="870.6069" y="21.9951">dow&#243;dzcy</text></g><!--cluster narod--><g id="cluster_narod"><rect fill="none" height="234" rx="2.5" ry="2.5" style="stroke:#181818;stroke-width:1.0;" width="168" x="333" y="359"/><text fill="#000000" font-family="sans-serif" font-size="14" font-weight="bold" lengthAdjust="spacing" textLength="45.958" x="394.021" y="373.9951">nar&#243;d</text></g><!--cluster osada--><g id="cluster_osada"><rect fill="none" height="200" rx="2.5" ry="2.5" style="stroke:#181818;stroke-width:1.0;" width="238" x="615" y="634"/><text fill="#000000" font-family="sans-serif" font-size="14" font-weight="bold" lengthAdjust="spacing" textLength="46.8672" x="710.5664" y="648.9951">osada</text></g><!--entity towarzysze--><g id="elem_towarzysze"><rect fill="#F1F1F1" height="36.2969" rx="2.5" ry="2.5" style="stroke:#181818;stroke-width:0.5;" width="98.7295" x="23.5" y="58.5"/><text fill="#000000" font-family="sans-serif" font-size="14" lengthAdjust="spacing" textLength="78.7295" x="33.5" y="81.4951">towarzysze</text></g><!--entity powiernicy--><g id="elem_powiernicy"><rect fill="#F1F1F1" height="52.5938" rx="2.5" ry="2.5" style="stroke:#181818;stroke-width:0.5;" width="95.9814" x="263" y="50"/><text fill="#000000" font-family="sans-serif" font-size="14" lengthAdjust="spacing" textLength="75.9063" x="273" y="72.9951">powiernicy</text><text fill="#000000" font-family="sans-serif" font-size="14" lengthAdjust="spacing" textLength="75.9814" x="273" y="89.292">pier&#347;cienia</text></g><!--entity Gollum--><g id="elem_Gollum"><rect fill="#F1F1F1" height="36.2969" rx="2.5" ry="2.5" style="stroke:#181818;stroke-width:0.5;" width="69.7041" x="158" y="58.5"/><text fill="#000000" font-family="sans-serif" font-size="14" lengthAdjust="spacing" textLength="49.7041" x="168" y="81.4951">Gollum</text></g><!--entity slugi--><g id="elem_slugi"><rect fill="#F1F1F1" height="36.2969" rx="2.5" ry="2.5" style="stroke:#181818;stroke-width:0.5;" width="52.9219" x="394.5" y="58.5"/><text fill="#000000" font-family="sans-serif" font-size="14" lengthAdjust="spacing" textLength="32.9219" x="404.5" y="81.4951">s&#322;ugi</text></g><!--entity regularne--><g id="elem_regularne"><rect fill="#F1F1F1" height="36.2969" rx="2.5" ry="2.5" style="stroke:#181818;stroke-width:0.5;" width="87.8398" x="648" y="58.5"/><text fill="#000000" font-family="sans-serif" font-size="14" lengthAdjust="spacing" textLength="67.8398" x="658" y="81.4951">regularne</text></g><!--entity elitarne--><g id="elem_elitarne"><rect fill="#F1F1F1" height="36.2969" rx="2.5" ry="2.5" style="stroke:#181818;stroke-width:0.5;" width="73.7031" x="539" y="58.5"/><text fill="#000000" font-family="sans-serif" font-size="14" lengthAdjust="spacing" textLength="53.7031" x="549" y="81.4951">elitarne</text></g><!--entity Nazgule--><g id="elem_Nazgule"><rect fill="#F1F1F1" height="36.2969" rx="2.5" ry="2.5" style="stroke:#181818;stroke-width:0.5;" width="76.6631" x="808.5" y="58.5"/><text fill="#000000" font-family="sans-serif" font-size="14" lengthAdjust="spacing" textLength="56.6631" x="818.5" y="81.4951">Nazg&#251;le</text></g><!--entity dowodzcyWolnychLudow--><g id="elem_dowodzcyWolnychLudow"><rect fill="#F1F1F1" height="68.8906" rx="2.5" ry="2.5" style="stroke:#181818;stroke-width:0.5;" width="89.6855" x="921" y="42"/><text fill="#000000" font-family="sans-serif" font-size="14" lengthAdjust="spacing" textLength="69.6855" x="931" y="64.9951">dow&#243;dzcy</text><text fill="#000000" font-family="sans-serif" font-size="14" lengthAdjust="spacing" textLength="60.0264" x="931" y="81.292">Wolnych</text><text fill="#000000" font-family="sans-serif" font-size="14" lengthAdjust="spacing" textLength="45.5752" x="931" y="97.5889">Lud&#243;w</text></g><!--entity region--><g id="elem_region"><rect fill="#F1F1F1" height="36.2969" rx="2.5" ry="2.5" style="stroke:#181818;stroke-width:0.5;" width="64.584" x="419.5" y="394"/><text fill="#000000" font-family="sans-serif" font-size="14" lengthAdjust="spacing" textLength="44.584" x="429.5" y="416.9951">region</text></g><g id="elem_GMN17"><path d="M349,491 L349,576.6641 A0,0 0 0 0 349,576.6641 L484.7212,576.6641 A0,0 0 0 0 484.7212,576.6641 L484.7212,501 L474.7212,491 L433.26,491 L446.99,430.19 L425.26,491 L349,491 A0,0 0 0 0 349,491 " fill="#FEFFDD" style="stroke:#181818;stroke-width:0.5;"/><path d="M474.7212,491 L474.7212,501 L484.7212,501 L474.7212,491 " fill="#FEFFDD" style="stroke:#181818;stroke-width:0.5;"/><text fill="#000000" font-family="sans-serif" font-size="13" font-weight="bold" lengthAdjust="spacing" textLength="43.126" x="355" y="508.0669">wolny</text><text fill="#000000" font-family="sans-serif" font-size="13" lengthAdjust="spacing" textLength="67.4629" x="402.2583" y="508.0669">dla gracza</text><text fill="#000000" font-family="sans-serif" font-size="13" lengthAdjust="spacing" textLength="112.7344" x="355" y="523.1997">gdy brak wrogich</text><text fill="#000000" font-family="sans-serif" font-size="13" lengthAdjust="spacing" textLength="76.0195" x="355" y="538.3325">armii i osad</text><text fill="#000000" font-family="sans-serif" font-size="13" lengthAdjust="spacing" textLength="100.439" x="355" y="553.4653">(poza oblegan&#261;</text><text fill="#000000" font-family="sans-serif" font-size="13" lengthAdjust="spacing" textLength="60.7979" x="355" y="568.5981">twierdz&#261;)</text></g><!--entity wioska--><g id="elem_wioska"><rect fill="#F1F1F1" height="36.2969" rx="2.5" ry="2.5" style="stroke:#181818;stroke-width:0.5;" width="67.8857" x="658" y="677"/><text fill="#000000" font-family="sans-serif" font-size="14" lengthAdjust="spacing" textLength="47.8857" x="668" y="699.9951">wioska</text></g><!--entity miasto--><g id="elem_miasto"><rect fill="#F1F1F1" height="36.2969" rx="2.5" ry="2.5" style="stroke:#181818;stroke-width:0.5;" width="67.4551" x="761.5" y="677"/><text fill="#000000" font-family="sans-serif" font-size="14" lengthAdjust="spacing" textLength="47.4551" x="771.5" y="699.9951">miasto</text></g><!--entity twierdza--><g id="elem_twierdza"><rect fill="#F1F1F1" height="36.2969" rx="2.5" ry="2.5" style="stroke:#181818;stroke-width:0.5;" width="80.0127" x="658" y="774"/><text fill="#000000" font-family="sans-serif" font-size="14" lengthAdjust="spacing" textLength="60.0127" x="668" y="796.9951">twierdza</text></g><!--entity druzyna--><g id="elem_druzyna"><rect fill="#F1F1F1" height="52.5938" rx="2.5" ry="2.5" style="stroke:#181818;stroke-width:0.5;" width="95.5371" x="243" y="247"/><text fill="#000000" font-family="sans-serif" font-size="14" lengthAdjust="spacing" textLength="58.4951" x="253" y="269.9951">Dru&#380;yna</text><text fill="#000000" font-family="sans-serif" font-size="14" lengthAdjust="spacing" textLength="75.5371" x="253" y="286.292">Pier&#347;cienia</text></g><!--entity armia--><g id="elem_armia"><rect fill="#F1F1F1" height="36.2969" rx="2.5" ry="2.5" style="stroke:#181818;stroke-width:0.5;" width="60.4414" x="474" y="255.5"/><text fill="#000000" font-family="sans-serif" font-size="14" lengthAdjust="spacing" textLength="40.4414" x="484" y="278.4951">armia</text></g><!--entity fortyfikacja--><g id="elem_fortyfikacja"><rect fill="#F1F1F1" height="36.2969" rx="2.5" ry="2.5" style="stroke:#181818;stroke-width:0.5;" width="98.6953" x="488.5" y="677"/><text fill="#000000" font-family="sans-serif" font-size="14" lengthAdjust="spacing" textLength="78.6953" x="498.5" y="699.9951">fortyfikacja</text></g><!--link towarzysze to region--><g id="link_towarzysze_region"><path d="M65.21,94.71 C47.27,137.22 8.54,248.32 62,312 C108.43,367.31 328.2786,397.1704 413.4486,406.8804 " fill="none" id="towarzysze-to-region" style="stroke:#181818;stroke-width:1.0;stroke-dasharray:7.0,7.0;"/><polygon fill="#181818" points="419.41,407.56,410.921,402.5663,414.4422,406.9936,410.0148,410.5148,419.41,407.56" style="stroke:#181818;stroke-width:1.0;"/><text fill="#000000" font-family="sans-serif" font-size="13" lengthAdjust="spacing" textLength="16.2056" x="93.9702" y="255.5669">po</text><text fill="#8A2BE2" font-family="sans-serif" font-size="13" lengthAdjust="spacing" textLength="80.1011" x="114.3081" y="255.5669">opuszczeniu</text><text fill="#000000" font-family="sans-serif" font-size="13" lengthAdjust="spacing" textLength="132.6978" x="77.8408" y="270.6997">Dru&#380;yny Pier&#347;cienia;</text><text fill="#000000" font-family="sans-serif" font-size="13" lengthAdjust="spacing" textLength="120.5864" x="83.8965" y="285.8325">mo&#380;e porusza&#263; si&#281;</text><text fill="#000000" font-family="sans-serif" font-size="13" lengthAdjust="spacing" textLength="162.3794" x="63" y="300.9653">samodzielnie lub z armi&#261;</text></g><!--link towarzysze to druzyna--><g id="link_towarzysze_druzyna"><path d="M68.43,94.57 C62.39,121.32 55.26,173.33 81,205 C112.69,243.99 142.18,219.57 190,235 C207.36,240.6 220.5233,245.2599 237.1333,251.4999 " fill="none" id="towarzysze-to-druzyna" style="stroke:#181818;stroke-width:1.0;stroke-dasharray:7.0,7.0;"/><polygon fill="#181818" points="242.75,253.61,235.7316,246.7004,238.0694,251.8516,232.9182,254.1894,242.75,253.61" style="stroke:#181818;stroke-width:1.0;"/><text fill="#000000" font-family="sans-serif" font-size="13" lengthAdjust="spacing" textLength="66.3394" x="102.6775" y="156.0669">s&#261; cz&#281;&#347;ci&#261;</text><text fill="#000000" font-family="sans-serif" font-size="13" lengthAdjust="spacing" textLength="99.9692" x="85.8625" y="171.1997">dru&#380;yny dop&#243;ki</text><text fill="#000000" font-family="sans-serif" font-size="13" lengthAdjust="spacing" textLength="39.2031" x="82" y="186.3325">jej nie</text><text fill="#8A2BE2" font-family="sans-serif" font-size="13" lengthAdjust="spacing" textLength="64.3589" x="125.3354" y="186.3325">opuszcz&#261;;</text><text fill="#000000" font-family="sans-serif" font-size="13" lengthAdjust="spacing" textLength="105.9233" x="82.8855" y="201.4653">jeden przewodzi</text></g><!--link Gollum to druzyna--><g id="link_Gollum_druzyna"><path d="M193.06,94.74 C193.84,120.37 198.1,169.35 218,205 C227,221.13 236.633,231.7142 250.153,243.0542 " fill="none" id="Gollum-to-druzyna" style="stroke:#181818;stroke-width:1.0;stroke-dasharray:7.0,7.0;"/><polygon fill="#181818" points="254.75,246.91,250.425,238.0616,250.9191,243.6968,245.2839,244.191,254.75,246.91" style="stroke:#181818;stroke-width:1.0;"/><text fill="#000000" font-family="sans-serif" font-size="13" lengthAdjust="spacing" textLength="127.207" x="219" y="163.5669">pod&#261;&#380;a za dru&#380;yna;</text><text fill="#000000" font-family="sans-serif" font-size="13" lengthAdjust="spacing" textLength="98.1538" x="233.5266" y="178.6997">przewodzi, gdy</text><text fill="#8A2BE2" font-family="sans-serif" font-size="13" lengthAdjust="spacing" textLength="125.874" x="219.6665" y="193.8325">braknie towarzyszy</text></g><!--link powiernicy to druzyna--><g id="link_powiernicy_druzyna"><path d="M333.32,103.05 C341.87,114.46 350.61,128.59 355,143 C363.03,169.36 365.21,179.4 355,205 C348.6,221.05 340.741,231.3697 328.671,242.7197 " fill="none" id="powiernicy-to-druzyna" style="stroke:#181818;stroke-width:1.0;"/><polygon fill="#181818" points="324.3,246.83,333.5967,243.5786,327.9425,243.4048,328.1163,237.7506,324.3,246.83" style="stroke:#181818;stroke-width:1.0;"/></g><!--link slugi to region--><g id="link_slugi_region"><path d="M422.62,94.96 C427.98,152.59 444.5051,330.3557 449.8351,387.7357 " fill="none" id="slugi-to-region" style="stroke:#181818;stroke-width:1.0;"/><polygon fill="#181818" points="450.39,393.71,453.5404,384.3786,449.9275,388.7314,445.5747,385.1185,450.39,393.71" style="stroke:#181818;stroke-width:1.0;"/></g><!--link Nazgule to region--><g id="link_Nazgule_region"><path d="M827.94,94.61 C800.38,119.27 747.69,166.11 702,205 C618.28,276.27 521.2971,355.0493 477.9271,390.0893 " fill="none" id="Nazgule-to-region" style="stroke:#181818;stroke-width:1.0;"/><polygon fill="#181818" points="473.26,393.86,482.7745,391.3154,477.1493,390.7178,477.7469,385.0926,473.26,393.86" style="stroke:#181818;stroke-width:1.0;"/><text fill="#000000" font-family="sans-serif" font-size="13" lengthAdjust="spacing" textLength="120.5864" x="688.0864" y="248.0669">mo&#380;e porusza&#263; si&#281;</text><text fill="#000000" font-family="sans-serif" font-size="13" lengthAdjust="spacing" textLength="166.7593" x="665" y="263.1997">samodzielnie lub z armi&#261;;</text><text fill="#000000" font-family="sans-serif" font-size="13" lengthAdjust="spacing" textLength="130.9014" x="682.929" y="278.3325">bez przyjaznej armii</text><text fill="#000000" font-family="sans-serif" font-size="13" lengthAdjust="spacing" textLength="96.9795" x="699.8899" y="293.4653">nie wchodzi do</text><text fill="#000000" font-family="sans-serif" font-size="13" lengthAdjust="spacing" textLength="106.9897" x="694.8848" y="308.5981">wrogiej twierdzy</text></g><!--link dowodzcyWolnychLudow to region--><g id="link_dowodzcyWolnychLudow_region"><path d="M957.36,111.12 C942.38,162.45 906.62,259.89 840,312 C730.89,397.34 562.579,409.6991 490.659,411.0291 " fill="none" id="dowodzcyWolnychLudow-to-region" style="stroke:#181818;stroke-width:1.0;"/><polygon fill="#181818" points="484.66,411.14,493.7324,414.9729,489.6591,411.0476,493.5845,406.9743,484.66,411.14" style="stroke:#181818;stroke-width:1.0;"/><text fill="#000000" font-family="sans-serif" font-size="13" lengthAdjust="spacing" textLength="23.0737" x="926.6455" y="255.5669">bez</text><text fill="#000000" font-family="sans-serif" font-size="13" lengthAdjust="spacing" textLength="66.3647" x="905" y="270.6997">przyjaznej</text><text fill="#000000" font-family="sans-serif" font-size="13" lengthAdjust="spacing" textLength="33.1982" x="921.5833" y="285.8325">armii</text><text fill="#000000" font-family="sans-serif" font-size="13" lengthAdjust="spacing" textLength="31.7129" x="922.3259" y="300.9653">ginie</text></g><!--link jednostki to armia--><g id="link_jednostki_armia"><path d="M504,119.0017 C504,119.5122 504,120.0258 504,120.5424 C504,121.5756 504,122.6208 504,123.6773 C504,132.129 504,141.3003 504,150.7987 C504,188.7925 504,226.02 504,249.36 " fill="none" id="jednostki-to-armia" style="stroke:#181818;stroke-width:1.0;"/><polygon fill="#181818" points="504,255.36,508,246.36,504,250.36,500,246.36,504,255.36" style="stroke:#181818;stroke-width:1.0;"/><text fill="#000000" font-family="sans-serif" font-size="13" lengthAdjust="spacing" textLength="57.5098" x="572.1423" y="171.0669">max 10 /</text><text fill="#000000" font-family="sans-serif" font-size="13" lengthAdjust="spacing" textLength="191.7944" x="505" y="186.1997">max 5 (w obl&#281;&#380;onej twierdzy)</text></g><!--link armia to region--><g id="link_armia_region"><path d="M497.52,291.51 C487.55,317.67 470.7176,361.8837 460.6976,388.1637 " fill="none" id="armia-to-region" style="stroke:#181818;stroke-width:1.0;"/><polygon fill="#181818" points="458.56,393.77,465.5039,386.7856,460.3413,389.0981,458.0288,383.9355,458.56,393.77" style="stroke:#181818;stroke-width:1.0;"/></g><!--link druzyna to region--><g id="link_druzyna_region"><path d="M321.28,300.17 C353.53,327.51 399.0929,366.1506 426.9729,389.7806 " fill="none" id="druzyna-to-region" style="stroke:#181818;stroke-width:1.0;"/><polygon fill="#181818" points="431.55,393.66,427.2706,384.7895,427.7357,390.4272,422.098,390.8923,431.55,393.66" style="stroke:#181818;stroke-width:1.0;"/></g><!--reverse link region to osada--><g id="link_region_osada"><path d="M482.9217,433.5784 C502.8217,447.7984 524.8,466.19 542,491 C577.9,542.78 583.6,558.74 605,618 C607.855,625.9075 610.3831,634.4425 612.5752,642.8372 C613.1232,644.9359 613.6502,647.0258 614.156,649.0949 C614.4089,650.1295 614.6566,651.1588 614.8989,652.1815 C614.9292,652.3094 614.9594,652.4371 614.9895,652.5647 " fill="none" id="region-backto-osada" style="stroke:#181818;stroke-width:1.0;"/><polygon fill="#181818" points="478.04,430.09,483.037,438.577,482.1081,432.997,487.6882,432.068,478.04,430.09" style="stroke:#181818;stroke-width:1.0;"/></g><!--reverse link region to fortyfikacja--><g id="link_region_fortyfikacja"><path d="M469.8739,434.8659 C481.6039,449.9459 494.05,468.27 503,491 C528.73,556.39 535.58,641 537.38,676.8 " fill="none" id="region-backto-fortyfikacja" style="stroke:#181818;stroke-width:1.0;"/><polygon fill="#181818" points="466.19,430.13,468.5585,439.6898,469.2599,434.0766,474.8731,434.778,466.19,430.13" style="stroke:#181818;stroke-width:1.0;"/></g><!--SRC=[bLInZjD04Etz5IDNTn4veA397LSW91g4gA1nCx4tlaqsCzRQbl4Y6gI8RpZn6LUIBiv_tQpZ9Du3XEXsnpFpthnzOwlI2Yat2WekAqorWgyHW3s5AsxGkhPqAWWNt6XbIQSjO0dn-PfG8QVzJ-b46kEWw1qRKw-3K6dgNFSjolrtESRHj-ZyTQao4beh_OIKLNbjq5B8IHbTzS5nYumRpjn0Kowx1t-BdpJyW4uwgZx9dtU_Z0gv7_jyPaDjUlU-ba3OCw7XMqBoTVVGXBDajdOjOL_prjRxhLmI-XY8TSv6kzOukXDQplfQEGbU_BiYcab2n9M2ELSLhu4NGtm6aqdZoKqca1c4t6Bg13tFMfXRN45ZETUUkSVLe85Bp1AwADWXyDoe7AdR95JvPyvSjxcKsQApD-3gwkhs15Omt2oOAaZPi7qTlp6r-gJPg2g-vQ8kNUfatZgXGOSMnZ9S9xJc_TPxp4ekTZ-WrDrzGYMkvGcqCYGkDVKSN2zJjmc9t1wbda7PRI1rtRrlxUbdHxoCYzt3IYUqL4lmxVx5jzjS- -HC4HJMAUy57Hty748Md7MR_HP1X1lW_4IdecSWeYVqLpp_79xGQQGs6ktQT7g2YWwhC_MXuVMZeur7mHdyfvX2TgwSdx9TeYFHf_T4GZwnIUzybUYNKEyP-Jnueet-k2815MdSIp5q7kmcFjJIF3flkw_fDs06yHg_mCiNy5nS8QTNSD5uGygRRfb6w9Tn5FKbC1Bak7DZZSuxupsEJ_QeqLokC0X9pxBYyATu0CLWmHTigtQXLvWkqSDuEBYH-Gz0GIJ8VGG0]--></g></svg>