<svg xmlns="http://www.w3.org/2000/svg" xmlns:xlink="http://www.w3.org/1999/xlink" contentStyleType="text/css" height="846px" preserveAspectRatio="none" style="width:570px;height:846px;background:#FFFFFF;" version="1.1" viewBox="0 0 570 846" width="570px" zoomAndPan="magnify"><defs/><g><ellipse cx="262.8369" cy="20" fill="#222222" rx="10" ry="10" style="stroke:#222222;stroke-width:1.0;"/><rect fill="#F1F1F1" height="33.9688" rx="12.5" ry="12.5" style="stroke:#181818;stroke-width:0.5;" width="272.3164" x="126.6787" y="94"/><text fill="#000000" font-family="sans-serif" font-size="12" lengthAdjust="spacing" textLength="252.3164" x="136.6787" y="115.1387">odzyskanie i otrzymanie/utrata ko&#347;ci akcji</text><rect fill="#F1F1F1" height="33.9688" rx="12.5" ry="12.5" style="stroke:#181818;stroke-width:0.5;" width="174.3125" x="175.6807" y="147.9688"/><text fill="#000000" font-family="sans-serif" font-size="12" lengthAdjust="spacing" textLength="154.3125" x="185.6807" y="169.1074">dobranie 2 kart wydarze&#324;</text><rect fill="#87CEEB" height="33.9688" rx="12.5" ry="12.5" style="stroke:#181818;stroke-width:0.5;" width="300.1719" x="112.751" y="201.9375"/><text fill="#000000" font-family="sans-serif" font-size="12" lengthAdjust="spacing" textLength="280.1719" x="122.751" y="223.0762">Wolne Ludy mog&#261; ujawni&#263; Dru&#380;yn&#281; Pier&#347;cienia</text><rect fill="#87CEEB" height="33.9688" rx="12.5" ry="12.5" style="stroke:#181818;stroke-width:0.5;" width="380.5508" x="72.5615" y="255.9063"/><text fill="#000000" font-family="sans-serif" font-size="12" lengthAdjust="spacing" textLength="360.5508" x="82.5615" y="277.0449">Wolne Ludy mog&#261; zmieni&#263; przewodnika Dru&#380;yny Pier&#347;cienia</text><rect fill="#FF4500" height="61.9063" rx="12.5" ry="12.5" style="stroke:#181818;stroke-width:0.5;" width="438.7813" x="43.4463" y="309.875"/><text fill="#000000" font-family="sans-serif" font-size="12" lengthAdjust="spacing" textLength="250.2188" x="53.4463" y="331.0137">Cie&#324; przydziela ko&#347;ci akcji do poszukiwa&#324;</text><ellipse cx="58.9463" cy="340.3125" fill="#000000" rx="2.5" ry="2.5" style="stroke:#000000;stroke-width:0.0;"/><text fill="#000000" font-family="sans-serif" font-size="12" lengthAdjust="spacing" textLength="351.082" x="65.4463" y="344.9824">min. 1, je&#347;li Wolne Ludy odzyska&#322;y ko&#347;&#263; z pola poszukiwa&#324;</text><ellipse cx="58.9463" cy="354.2813" fill="#000000" rx="2.5" ry="2.5" style="stroke:#000000;stroke-width:0.0;"/><text fill="#000000" font-family="sans-serif" font-size="12" lengthAdjust="spacing" textLength="406.7813" x="65.4463" y="358.9512">max. tyle ile zosta&#322;o Towarzyszy w Dru&#380;ynie Pier&#347;cienia (ale min. 1)</text><rect fill="#F1F1F1" height="33.9688" rx="12.5" ry="12.5" style="stroke:#181818;stroke-width:0.5;" width="131.4102" x="197.1318" y="391.7813"/><text fill="#000000" font-family="sans-serif" font-size="12" lengthAdjust="spacing" textLength="111.4102" x="207.1318" y="412.9199">Rzuty ko&#347;&#263;mi akcji</text><rect fill="#FF4500" height="33.9688" rx="12.5" ry="12.5" style="stroke:#181818;stroke-width:0.5;" width="253.9355" x="135.8691" y="455.7656"/><text fill="#000000" font-family="sans-serif" font-size="12" lengthAdjust="spacing" textLength="233.9355" x="145.8691" y="476.9043">Cie&#324; k&#322;adzie "Oka" na polu poszukiwa&#324;</text><rect fill="#87CEEB" height="61.9063" rx="12.5" ry="12.5" style="stroke:#181818;stroke-width:0.5;" width="503.6738" x="11" y="553.7344"/><text fill="#000000" font-family="sans-serif" font-size="12" lengthAdjust="spacing" textLength="131.2734" x="21" y="574.873">Wolne Ludy wykonuj&#261;</text><text fill="#000000" font-family="sans-serif" font-size="12" font-weight="bold" lengthAdjust="spacing" textLength="35.4434" x="156.0879" y="574.873">akcj&#281;</text><ellipse cx="26.5" cy="584.1719" fill="#000000" rx="2.5" ry="2.5" style="stroke:#000000;stroke-width:0.0;"/><text fill="#000000" font-family="sans-serif" font-size="12" lengthAdjust="spacing" textLength="471.6738" x="33" y="588.8418">mog&#261; spasowa&#263;, je&#347;li maj&#261; mniej niewykorzystanych ko&#347;ci akcji ni&#380; przeciwnik</text><ellipse cx="26.5" cy="598.1406" fill="#000000" rx="2.5" ry="2.5" style="stroke:#000000;stroke-width:0.0;"/><text fill="#000000" font-family="sans-serif" font-size="12" lengthAdjust="spacing" textLength="250.6289" x="33" y="602.8105">mog&#261; pomin&#261;&#263; akcj&#281; (odrzuci&#263; ko&#347;&#263; akcji)</text><rect fill="#FF4500" height="61.9063" rx="12.5" ry="12.5" style="stroke:#181818;stroke-width:0.5;" width="491.6973" x="16.9883" y="643.1406"/><text fill="#000000" font-family="sans-serif" font-size="12" lengthAdjust="spacing" textLength="87.6504" x="26.9883" y="664.2793">Cie&#324; wykonuje</text><text fill="#000000" font-family="sans-serif" font-size="12" font-weight="bold" lengthAdjust="spacing" textLength="35.4434" x="118.4531" y="664.2793">akcj&#281;</text><ellipse cx="32.4883" cy="673.5781" fill="#000000" rx="2.5" ry="2.5" style="stroke:#000000;stroke-width:0.0;"/><text fill="#000000" font-family="sans-serif" font-size="12" lengthAdjust="spacing" textLength="459.6973" x="38.9883" y="678.248">mo&#380;e spasowa&#263;, je&#347;li ma mniej niewykorzystanych ko&#347;ci akcji ni&#380; przeciwnik</text><ellipse cx="32.4883" cy="687.5469" fill="#000000" rx="2.5" ry="2.5" style="stroke:#000000;stroke-width:0.0;"/><text fill="#000000" font-family="sans-serif" font-size="12" lengthAdjust="spacing" textLength="249.3398" x="38.9883" y="692.2168">mo&#380;e pomin&#261;&#263; akcj&#281; (odrzuci&#263; ko&#347;&#263; akcji)</text><polygon fill="#F1F1F1" points="262.8369,509.7344,274.8369,521.7344,262.8369,533.7344,250.8369,521.7344,262.8369,509.7344" style="stroke:#181818;stroke-width:0.5;"/><polygon fill="#F1F1F1" points="183.3904,725.0469,342.2834,725.0469,354.2834,737.0469,342.2834,749.0469,183.3904,749.0469,171.3904,737.0469,183.3904,725.0469" style="stroke:#181818;stroke-width:0.5;"/><text fill="#000000" font-family="sans-serif" font-size="11" lengthAdjust="spacing" textLength="158.8931" x="183.3904" y="740.855">wszystkie ko&#347;ci akcji zu&#380;yte?</text><text fill="#000000" font-family="sans-serif" font-size="11" lengthAdjust="spacing" textLength="16.7954" x="354.2834" y="734.4526">nie</text><polygon fill="#F1F1F1" points="262.8369,50,274.8369,62,262.8369,74,250.8369,62,262.8369,50" style="stroke:#181818;stroke-width:0.5;"/><polygon fill="#F1F1F1" points="199.74,769.0469,325.9338,769.0469,337.9338,781.0469,325.9338,793.0469,199.74,793.0469,187.74,781.0469,199.74,769.0469" style="stroke:#181818;stroke-width:0.5;"/><text fill="#000000" font-family="sans-serif" font-size="11" lengthAdjust="spacing" textLength="126.1938" x="199.74" y="784.855">kto&#347; wygra&#322; wojskowo?</text><text fill="#000000" font-family="sans-serif" font-size="11" lengthAdjust="spacing" textLength="16.7954" x="337.9338" y="778.4526">nie</text><ellipse cx="262.8369" cy="824.0469" fill="none" rx="11" ry="11" style="stroke:#222222;stroke-width:1.0;"/><ellipse cx="262.8369" cy="824.0469" fill="#222222" rx="6" ry="6" style="stroke:#222222;stroke-width:1.0;"/><line style="stroke:#181818;stroke-width:1.0;" x1="262.8369" x2="262.8369" y1="127.9688" y2="147.9688"/><polygon fill="#181818" points="258.8369,137.9688,262.8369,147.9688,266.8369,137.9688,262.8369,141.9688" style="stroke:#181818;stroke-width:1.0;"/><line style="stroke:#181818;stroke-width:1.0;" x1="262.8369" x2="262.8369" y1="181.9375" y2="201.9375"/><polygon fill="#181818" points="258.8369,191.9375,262.8369,201.9375,266.8369,191.9375,262.8369,195.9375" style="stroke:#181818;stroke-width:1.0;"/><line style="stroke:#181818;stroke-width:1.0;" x1="262.8369" x2="262.8369" y1="235.9063" y2="255.9063"/><polygon fill="#181818" points="258.8369,245.9063,262.8369,255.9063,266.8369,245.9063,262.8369,249.9063" style="stroke:#181818;stroke-width:1.0;"/><line style="stroke:#181818;stroke-width:1.0;" x1="262.8369" x2="262.8369" y1="289.875" y2="309.875"/><polygon fill="#181818" points="258.8369,299.875,262.8369,309.875,266.8369,299.875,262.8369,303.875" style="stroke:#181818;stroke-width:1.0;"/><line style="stroke:#181818;stroke-width:1.0;" x1="262.8369" x2="262.8369" y1="371.7813" y2="391.7813"/><polygon fill="#181818" points="258.8369,381.7813,262.8369,391.7813,266.8369,381.7813,262.8369,385.7813" style="stroke:#181818;stroke-width:1.0;"/><line style="stroke:#181818;stroke-width:1.0;" x1="262.8369" x2="262.8369" y1="425.75" y2="455.7656"/><polygon fill="#181818" points="258.8369,445.7656,262.8369,455.7656,266.8369,445.7656,262.8369,449.7656" style="stroke:#181818;stroke-width:1.0;"/><line style="stroke:#181818;stroke-width:1.0;" x1="262.8369" x2="262.8369" y1="615.6406" y2="643.1406"/><polygon fill="#181818" points="258.8369,633.1406,262.8369,643.1406,266.8369,633.1406,262.8369,637.1406" style="stroke:#181818;stroke-width:1.0;"/><line style="stroke:#181818;stroke-width:1.0;" x1="262.8369" x2="262.8369" y1="533.7344" y2="553.7344"/><polygon fill="#181818" points="258.8369,543.7344,262.8369,553.7344,266.8369,543.7344,262.8369,547.7344" style="stroke:#181818;stroke-width:1.0;"/><line style="stroke:#181818;stroke-width:1.0;" x1="354.2834" x2="526.6738" y1="737.0469" y2="737.0469"/><polygon fill="#181818" points="522.6738,635.6406,526.6738,625.6406,530.6738,635.6406,526.6738,631.6406" style="stroke:#181818;stroke-width:1.0;"/><line style="stroke:#181818;stroke-width:1.0;" x1="526.6738" x2="526.6738" y1="521.7344" y2="737.0469"/><line style="stroke:#181818;stroke-width:1.0;" x1="526.6738" x2="274.8369" y1="521.7344" y2="521.7344"/><polygon fill="#181818" points="284.8369,517.7344,274.8369,521.7344,284.8369,525.7344,280.8369,521.7344" style="stroke:#181818;stroke-width:1.0;"/><line style="stroke:#181818;stroke-width:1.0;" x1="262.8369" x2="262.8369" y1="705.0469" y2="725.0469"/><polygon fill="#181818" points="258.8369,715.0469,262.8369,725.0469,266.8369,715.0469,262.8369,719.0469" style="stroke:#181818;stroke-width:1.0;"/><line style="stroke:#181818;stroke-width:1.0;" x1="262.8369" x2="262.8369" y1="489.7344" y2="509.7344"/><polygon fill="#181818" points="258.8369,499.7344,262.8369,509.7344,266.8369,499.7344,262.8369,503.7344" style="stroke:#181818;stroke-width:1.0;"/><line style="stroke:#181818;stroke-width:1.0;" x1="262.8369" x2="262.8369" y1="74" y2="94"/><polygon fill="#181818" points="258.8369,84,262.8369,94,266.8369,84,262.8369,88" style="stroke:#181818;stroke-width:1.0;"/><line style="stroke:#181818;stroke-width:1.0;" x1="337.9338" x2="544.6738" y1="781.0469" y2="781.0469"/><polygon fill="#181818" points="540.6738,435.7656,544.6738,425.7656,548.6738,435.7656,544.6738,431.7656" style="stroke:#181818;stroke-width:1.0;"/><line style="stroke:#181818;stroke-width:1.0;" x1="544.6738" x2="544.6738" y1="62" y2="781.0469"/><line style="stroke:#181818;stroke-width:1.0;" x1="544.6738" x2="274.8369" y1="62" y2="62"/><polygon fill="#181818" points="284.8369,58,274.8369,62,284.8369,66,280.8369,62" style="stroke:#181818;stroke-width:1.0;"/><line style="stroke:#181818;stroke-width:1.0;" x1="262.8369" x2="262.8369" y1="749.0469" y2="769.0469"/><polygon fill="#181818" points="258.8369,759.0469,262.8369,769.0469,266.8369,759.0469,262.8369,763.0469" style="stroke:#181818;stroke-width:1.0;"/><line style="stroke:#181818;stroke-width:1.0;" x1="262.8369" x2="262.8369" y1="30" y2="50"/><polygon fill="#181818" points="258.8369,40,262.8369,50,266.8369,40,262.8369,44" style="stroke:#181818;stroke-width:1.0;"/><line style="stroke:#181818;stroke-width:1.0;" x1="262.8369" x2="262.8369" y1="793.0469" y2="813.0469"/><polygon fill="#181818" points="258.8369,803.0469,262.8369,813.0469,266.8369,803.0469,262.8369,807.0469" style="stroke:#181818;stroke-width:1.0;"/><!--SRC=[fP9DQXj148NtEaNXRAGXE2HBQH58iWmuE85iigdCD79FptGD_KEdUsbiV0RZgsWvVQzKZoH7FoOGij20eDwhxxrgwz2ucH63G3TRKfEYLQYb00daJ8fz-VF6EuCEGL5-gYMWgbkvcYqR-cccsNUWs0L2RD0aaUzMirTVLVpGUG7BxzHf0Pzz4w6dzNWFliMWvVW0dupFcwZ7H_WYXIdEGalygpRrPOQr0-y9r6YfSEyJJssk66ujhaK3ou-IgOeeDacAxZW9D0G3sUIL39ZlVkWAUgaluUrhQ4L-wYGSSEmQohTnyc2Kn69sF7N0NvVWOiT5yY-HTQmX-4Q1AuesHGXxS2xma1pco8ejmO9RlaxUxPVrp-MVfrFv5aiwkBXIU06w87N-a6krlpF0Yns7g4Zxbdkkgh9cVAogASlKlHtGCltuy5nBZsMsvm0jyAV8IpQ7EjOtnnLhcJVJqMh9nrT_N0VYfECzzxZT27DgJF9rEVAkuCc1cs3giz0xP756d3VYHUB_m2sM_u2xxHh2JNa0ys3BAiNdELgKoWjmulq2f8KvKorETChnECTS6tu_4AYrYW8Tpbj7msy0]--></g></svg>